<?xml version="1.0" encoding="UTF-8"?>
<svg viewBox="0 0 170.67 170.67" xmlns="http://www.w3.org/2000/svg" xmlns:xlink="http://www.w3.org/1999/xlink">
 <defs>
  <linearGradient id="z" x1="1.0057" x2=".52751" y1="4.1505" y2="-.090506" gradientTransform="scale(1.0038 .99625)" xlink:href="#o"/>
  <linearGradient id="r" x1=".76364" x2=".52121" y1="2.0078" y2=".42969" xlink:href="#p"/>
  <linearGradient id="s" x1=".98876" x2=".52809" y1="4.0156" y2="-.070313" xlink:href="#o"/>
  <linearGradient id="q" x1=".42241" x2=".37791" y1="-.3512" y2=".58955" xlink:href="#p"/>
  <linearGradient id="y" x1="1.6463" x2=".4898" y1="1.6641" y2=".54688" xlink:href="#p"/>
  <linearGradient id="x" x1=".72887" x2=".35916" y1="-.060345" y2=".27586" xlink:href="#p"/>
  <linearGradient id="w" x1=".99722" x2=".52828" y1="4.0796" y2="-.07958" gradientTransform="scale(1.0017 .99829)" xlink:href="#o"/>
  <linearGradient id="t" x1=".32826" x2=".3367" y1=".16154" y2="1.3926">
   <stop stop-color="#fff" stop-opacity="0" offset="0"/>
   <stop stop-color="#fff" offset="1"/>
  </linearGradient>
  <linearGradient id="u" x1=".93773" x2=".35897" y1=".83121" y2=".092357">
   <stop stop-color="#4f4f4f" offset="0"/>
   <stop stop-color="#bebebe" offset=".27444"/>
   <stop stop-color="#fff" offset="1"/>
  </linearGradient>
  <linearGradient id="o">
   <stop stop-opacity=".678" offset="0"/>
   <stop stop-opacity=".329" offset=".57"/>
   <stop stop-opacity="0" offset="1"/>
  </linearGradient>
  <linearGradient id="p">
   <stop stop-color="#fff" offset="0"/>
   <stop stop-color="#fff" stop-opacity="0" offset="1"/>
  </linearGradient>
  <linearGradient id="v" x1="1.887" x2=".70435" y1=".34091" y2=".41288">
   <stop stop-color="#1f1f1f" stop-opacity=".554" offset="0"/>
   <stop stop-opacity="0" offset="1"/>
  </linearGradient>
  <radialGradient id="aa" cx=".50704" cy=".57042" r=".581" fx=".54578" fy=".13028">
   <stop stop-color="#e3f9ff" offset="0"/>
   <stop stop-color="#73bee7" offset=".36195"/>
   <stop stop-color="#438ec5" offset=".62535"/>
   <stop stop-color="#477daf" offset=".72607"/>
   <stop stop-color="#2b5798" offset="1"/>
  </radialGradient>
  <radialGradient id="ab" xlink:href="#o"/>
 </defs>
 <g fill-rule="evenodd">
  <g stroke-width="1.25">
   <path d="m138.64 91.683a57.392 55.973 0 1 0 -114.78 0 57.392 55.973 0 1 0 114.78 0z" fill="url(#ab)"/>
   <path d="m132.02 81.505a48.77 48.77 0 1 0 -97.539 0 48.77 48.77 0 1 0 97.539 0z" fill="url(#aa)"/>
   <path d="m91.864 111.86c-6.4283-0.74718-6.4922-11.626-0.10558-12.507 4.0127 2.2579 7.7401-7.27 9.7874-3.4686-1.6911 7.2019 7.4967 5.5706 9.2514 0.038887 2.6091-4.4638 1.3018 3.8558 2.3024 5.6261 2.3351 5.7348-4.8932 13.749-10.222 8.8997-3.8111-3.3861-7.308 0.21372-11.013 1.4111zm13.447 3.9607c0.64438 2.4903 1.9551 2.7142 2.8107 0.088722 0.85553-2.4871-2.3588-2.0257-2.8107-0.088722zm-48.666-60.31c-5.3104 5.2619-6.8802 12.858-8.6461 19.837 1.3116 4.9254 5.2688 9.9431 0.71103 14.442-2.9139 6.3324-12.293 2.348-9.9558-4.092-0.11839-7.6289-1.0524-15.709 2.6136-22.732 2.0082-4.4657 5.809-9.8411 11.298-9.33 1.4485 0.32192 2.7338 1.1028 3.9796 1.8751zm11.74 17.609c-0.37674-6.1209 6.3084-5.5971 4.8008-12.909-0.25685-6.2047-13.204-3.1134-9.412-10.515 3.5299-5.5317 3.109-8.3711 11.946-9.7986 8.8367-1.8188 18.291-3.9457 33.154 7.0168 14.472 10.962-12.036 2.2692-15.215 6.2923-5.1043 4.2995-2.8035 13.711-8.7573 15.686-5.1456 3.2983-4.7361 10.118-5.5953 15.463 1.0239 4.38 14.577 1.2702 8.2397 7.2791-6.4442 1.6351-10.764-4.8529-15.245-8.2752-2.2698-2.1462-3.539-4.509-3.9157-10.239zm44.61-9.0003c5.4728-0.35069 7.7184 5.9286 7.2364 10.486-2.9819 4.9715 3.5813 9.6019 6.8251 4.4934 3.497-6.1775-2.2075-13.908-7.5485-17.179-2.3619-2.0922-7.0147-1.8067-6.5131 2.2002zm-54.002 52.436c6.8748-0.10384 13.814-1.6646 20.646-0.22868 2.6655 3.582 10.182 6.0865 10.282 9.8312-5.3063 3.7102-12.197 0.2256-17.739-1.2122-4.3998-1.3339-10.652-0.40839-12.926-5.3549-0.32031-0.96902-0.4868-2.023-0.26341-3.0354z" fill="#0e7a0c" fill-opacity=".594"/>
   <path d="m106.75 120.69c-19.043 22.869-82.387-0.29425-67.709-45.604 12.42-15.772 38.537-4.2802 67.709 45.604z" fill="url(#y)"/>
   <path d="m70.902 39.991c21.348-13.01 64.779 6.2356 58.411 42.486-8.6213 11.495-24.233-47.281-58.411-42.486z" fill="url(#x)"/>
   <path d="m119.1 57.446a35.039 23.561 0 1 0 -70.078 0 35.039 23.561 0 1 0 70.078 0z" fill="url(#q)"/>
  </g>
  <g transform="matrix(1 0 0 .88982 229.75 -225.2)" stroke-width="7.125">
   <path d="m-173.56 295.29l-1.125 0.0625s0.38519 4.0948 3.9688 9.5 7.3476 10.117 22.844 15.125l0.8125-0.9375c-12.188-3.837-19.566-9.853-22.875-14.844-3.3088-4.9908-3.625-8.9062-3.625-8.9062zm45.594 11c-3.8514 0.058014-7.4051 1.4472-10.594 3.7188-4.2515 3.0287-7.8697 7.6014-10.938 12.875-2.791 4.7979-5.1012 10.22-7.0312 15.594-5.352-1.7768-10.736-2.6621-14.125-1.6562-7.3818 2.3255-19.157 39.862-22.312 46.406-1.0883 2.607-1.2045 6.266-0.46875 9.9062 0.9484 5.6469 4.0565 11.394 9.2812 13.188 8.9564 3.7061 21.362-0.79251 25.312-7.6875 3.9004-7.2159 20.86-41.498 19.219-48.25-0.033295-0.11371-0.1749-0.22903-0.21875-0.34375-0.015564-0.10248 0.05368-0.31393 0.03125-0.40625-1.0594-3.6177-7.5446-7.7256-14.594-10.406 1.687-5.4989 3.7662-10.993 6.4062-15.531 2.963-5.0936 6.3261-10.03 10.188-12.781 6.3886-5.6226 18.672-3.3703 16-3.875-1.3444-0.29025-4.8725-0.76932-6.1562-0.75zm8.6875 4.0625c-0.14578 0.00528-0.13388 0.086273 0.125 0.25 1.0355 0.65494 1.3525 1.2211 1.4062 1.75 0.05368 0.52887-0.18945 1.2304-0.875 2.0625-0.68555 0.83212-1.7934 1.7505-3.1875 2.5938-5.5765 3.3731-16.302 5.3711-23.125 2.8125l-0.5625 0.9062c7.8809 2.9553 18.208 1.1553 24.406-2.5938 1.5495-0.93726 4.4702-3.3923 4.2188-5.6562-0.1886-1.4395-1.9689-2.1408-2.4062-2.125z" fill="url(#z)"/>
   <path d="m-174.84 294.36c-1.9372 1.7851 0.36896 4.8828 1.1062 6.969 3.8477 8.7873 11.971 14.997 20.993 17.802 4.9542 0.46713 2.7991 3.4708 0.90622 6.3809-2.2969 3.6741-3.5746 7.8385-5.3179 11.786-5.1536-0.97287-11.438-3.7067-16.062 0.09375-7.8836 9.8118-11.291 22.166-16.153 33.595-2.3613 6.9394-6.5912 13.951-5.0908 21.502 0.90201 6.8466 5.1226 14.13 12.43 15.455 10.487 2.6047 22.796-2.9392 26.358-13.49 6.4896-13.417 13.427-26.847 17.018-41.374 0.77008-5.2238-3.7025-8.6531-7.6968-10.971-1.7309-1.9282-6.6542-1.9304-6.4417-4.396 2.037-5.4958 3.9329-11.128 7.4197-15.914 8.4728 2.3915 17.918 1.2454 25.448-3.3014 2.8137-1.6032 5.7669-6.169 2.3025-8.5736-3.7512-2.243-2.5236 0.72916-1.5938 3.1875-5.2266 5.8908-13.929 7.0512-21.385 6.4713-5.0022 0.47839-1.5227-3.012 0.32196-4.9532 4.2264-5.0214 10.873-6.7579 17.219-6.5805 4.3032 0.26273 1.0489-3.2872-1.6726-2.4388-8.8273-1.3044-17.153 4.1991-21.822 11.372-1.945 1.8441-5.3306-1.6731-7.8493-1.9645-8.1712-4.003-16.424-10.303-18.094-19.812-0.53836-0.91034-1.368-1.1296-2.3438-0.84375z" fill="url(#w)"/>
   <path d="m-173.62 293.33c-4.1184 0.038849-2.9877 5.3494-1.3131 7.6009 3.8475 8.9246 11.758 15.544 20.81 18.782 3.7804 0.41327 3.1328 3.3176 1.2956 5.6334-1.8782 3.1696-3.2698 6.5064-4.5738 9.9208-2.5171 1.4301-5.6531-0.90884-8.4936-0.66428-4.0655-0.52585-8.5478 1.1927-10.113 5.2717-8.339 12.39-12.342 27.003-18.112 40.643-2.3142 7.3047-1.9436 15.905 2.7962 22.153 4.496 6.7339 13.772 7.9893 21.087 5.9751 7.7359-1.9558 13.848-8.1112 16.363-15.616 6.0984-13.352 13.308-26.558 16.155-41.024-0.10217-6.1191-6.1159-9.8687-10.977-12.352-3.4671-0.43811-2.8174-3.946-1.3842-6.0884 1.2959-3.7729 3.1364-7.2626 5.2413-10.642 8.3696 1.8276 17.432 0.9238 24.898-3.4192 3.6581-1.4367 6.6549-7.1817 3.1457-10.118-2.3518-0.81873-3.5191-1.3804-4.1372-3.8379-5.7902-2.4911-12.602-0.54355-17.817 2.4949-3.663 1.9383-5.8114 5.7018-8.9329 8.1301-6.326-1.091-11.896-5.1484-16.718-9.1941-3.783-3.369-5.8547-8.0172-7.544-12.633-0.29501-0.51199-1.1289-1.022-1.6754-1.0168zm53.188 15.25c-0.78162 2.2886 0.52701 5.3518-2.7287 6.2045-5.2849 3.765-12.207 4.1236-18.49 3.608 3.4259-6.1428 10.485-9.2134 17.317-9.359 1.3007-0.14786 2.6-0.31818 3.9014-0.45352z" fill="url(#s)"/>
  </g>
  <g stroke-width="1.25">
   <path d="m58.005 74.473c8.3446-2.1046 28.896 5.195 30.858 10.888 1.6414 5.7364-15.314 34.842-19.214 40.973-3.951 5.858-16.344 9.6957-25.3 6.547-8.3596-2.4382-11.34-13.5-8.6386-18.999 3.1558-5.5599 14.913-37.434 22.295-39.41z" fill="#fff"/>
   <path d="m120.92 100.34a36.55 28.696 0 1 0 -73.099 0 36.55 28.696 0 1 0 73.099 0z" fill="url(#r)"/>
  </g>
  <path d="m56.616 40.212c3.5836 5.4052 8.6781 11.529 24.174 16.537l0.7994-0.9198c-12.188-3.837-20.429-11.114-23.738-16.105l-1.2357 0.4872zm44.088 2.8693c-3.8514 0.058014-7.4144 1.439-10.603 3.7105-4.2515 3.0287-7.8744 7.6036-10.942 12.877-6.1355 10.547-10.335 24.064-11.965 33.61l2.5988 1.5992c1.5866-9.2931 4.926-24.204 10.852-34.391 2.963-5.0936 6.3426-10.047 10.204-12.797 6.3886-5.6226 19.704-3.1249 17.032-3.6296-1.3444-0.29025-3.0866-1.3187-7.1767-0.97864zm6.9238 1.0929c1.1372 0.40619 0.74542 0.60175 2.0341 1.853s1.1824 2.5897 1.2361 3.1186c0.053696 0.52887-0.18225 1.2227-0.86778 2.0548-0.68553 0.83212-1.7878 1.7401-3.1819 2.5834-5.5764 3.3731-16.303 5.3693-23.125 2.8107l-0.57 0.9255c7.8809 2.9553 18.216 1.15 24.414-2.5991 1.5495-0.93729 4.4707-3.3917 4.2192-5.6556-0.42912-3.2035-1.9566-4.9468-4.1579-5.0913z" fill="#e7e7e7" stroke-width="7.125"/>
  <g stroke-width="1.25">
   <path d="m58.161 74.26c8.3446-2.1517 28.896 5.3113 30.858 11.132 1.6414 5.8649-15.314 35.622-19.214 41.89-3.951 5.9892-16.344 9.9128-25.3 6.6935-8.3596-2.4928-11.34-13.802-8.6386-19.424 3.1558-5.6843 14.913-38.272 22.295-40.292z" fill="url(#u)"/>
   <path d="m57.997 73.536c8.3446-2.0474 28.896 5.0539 30.858 10.593 1.6414 5.5807-15.314 33.896-19.214 39.86-3.951 5.699-16.344 9.4324-25.3 6.3692-8.3596-2.372-11.34-13.134-8.6386-18.483 3.1557-5.4089 14.913-36.417 22.295-38.339z" fill="url(#v)"/>
   <path d="m75.484 77.1c-4.0404 5.2322-6.763 13.305-6.8981 13.662-5.0277-1.9545-12.619-4.0968-18.897-5.1336l-0.0691 0.3689c15.275 2.5229 29.591 9.1274 34.685 14.636l0.3024-0.2427c-3.0262-3.2728-8.5764-6.6852-15.664-9.4832 0.12157-0.321 2.853-8.4014 6.8597-13.59l-0.3194-0.2173z" fill-opacity=".586"/>
   <path d="m57.396 97.564c-6.4111-2.0867-19.452 13.792-21.16 20.576-1.8637 6.8038 8.5354 21.37 27.979 10.869 9.4892-5.2217 15.174-19.044 11.843-25.332-3.3306-6.288-15.677-5.0421-18.663-6.113z" fill="url(#t)"/>
  </g>
 </g>
</svg>
