<svg id="Layer_1" data-name="Layer 1" xmlns="http://www.w3.org/2000/svg" viewBox="0 0 400 462"><defs><style>.cls-1{fill:#56b9f9;}.cls-2{fill:#26aeff;}.cls-3{fill:#28afff;}.cls-4{fill:#2ab0ff;}.cls-5{fill:#2cb1ff;}.cls-6{fill:#2eb2ff;}.cls-7{fill:#30b3ff;}.cls-8{fill:#32b4ff;}.cls-9{fill:#34b5ff;}.cls-10{fill:#36b6ff;}.cls-11{fill:#38b7ff;}.cls-12{fill:#3ab8ff;}.cls-13{fill:#3bb9ff;}.cls-14{fill:#3dbaff;}.cls-15{fill:#3fbbff;}.cls-16{fill:#41bcff;}.cls-17{fill:#43bdff;}.cls-18{fill:#45beff;}.cls-19{fill:#47bfff;}.cls-20{fill:#49c0ff;}.cls-21{fill:#4bc1ff;}.cls-22{fill:#4dc2ff;}.cls-23{fill:#4fc3ff;}.cls-24{fill:#51c4ff;}.cls-25{fill:#53c5ff;}.cls-26{fill:#55c6ff;}.cls-27{fill:#57c7ff;}.cls-28{fill:#59c8ff;}.cls-29{fill:#5bc9ff;}.cls-30{fill:#5dcaff;}.cls-31{fill:#5fcbff;}.cls-32{fill:#61ccff;}.cls-33{fill:#62cdff;}.cls-34{fill:#64ceff;}.cls-35{fill:#66cfff;}.cls-36{fill:#68d0ff;}.cls-37{fill:#6ad1ff;}.cls-38{fill:#6cd2ff;}.cls-39{fill:#6ed3ff;}.cls-40{fill:#70d4ff;}.cls-41{fill:#72d5ff;}.cls-42{fill:#74d6ff;}.cls-43{fill:#76d7ff;}.cls-44{fill:#78d8ff;}.cls-45{fill:#7ad9ff;}.cls-46{fill:#7cdaff;}.cls-47{fill:#7edbff;}.cls-48{fill:#80dcff;}.cls-49{fill:#82ddff;}.cls-50{fill:#84deff;}.cls-51{fill:#86dfff;}.cls-52{fill:#88e0ff;}.cls-53{fill:#89e1ff;}.cls-54{fill:#8be2ff;}.cls-55{fill:#8de3ff;}.cls-56{fill:#8fe4ff;}.cls-57{fill:#91e5ff;}.cls-58{fill:#93e6ff;}.cls-59{fill:#95e7ff;}.cls-60{fill:#97e8ff;}.cls-61{fill:#99e9ff;}.cls-62{fill:#9beaff;}.cls-63{fill:#9debff;}.cls-64{fill:#9fecff;}.cls-65{fill:#a1edff;}.cls-66{fill:#a3eeff;}.cls-67{fill:#a5efff;}.cls-68{fill:#a7f0ff;}.cls-69{fill:#a9f1ff;}.cls-70{fill:#abf2ff;}.cls-71{fill:#adf3ff;}.cls-72{fill:#aff4ff;}.cls-73{fill:#b0f5ff;}.cls-74{fill:#b2f6ff;}.cls-75{fill:#b4f7ff;}.cls-76{fill:#b6f8ff;}.cls-77{fill:#b8f9ff;}.cls-78{fill:#bafaff;}.cls-79{fill:#bcfbff;}.cls-80{fill:#befcff;}.cls-81{fill:#c0fdff;}.cls-82{fill:#c2feff;}.cls-83{fill:#c4ffff;}.cls-84{fill:none;stroke:#0da1eb;stroke-linecap:round;stroke-linejoin:round;stroke-width:3px;}.cls-85{fill:#fff;}</style></defs><g id="レイヤー_4" data-name="レイヤー 4"><rect class="cls-1" width="400" height="462"/><ellipse class="cls-2" cx="200" cy="230.29" rx="163.33" ry="163.19"/><ellipse class="cls-3" cx="200.61" cy="229.34" rx="161.58" ry="161.44"/><ellipse class="cls-4" cx="201.21" cy="228.39" rx="159.83" ry="159.69"/><ellipse class="cls-5" cx="201.82" cy="227.44" rx="158.08" ry="157.94"/><ellipse class="cls-6" cx="202.42" cy="226.48" rx="156.33" ry="156.19"/><ellipse class="cls-7" cx="203.03" cy="225.53" rx="154.58" ry="154.44"/><ellipse class="cls-8" cx="203.63" cy="224.58" rx="152.83" ry="152.69"/><ellipse class="cls-9" cx="204.24" cy="223.62" rx="151.08" ry="150.94"/><ellipse class="cls-10" cx="204.85" cy="222.67" rx="149.32" ry="149.19"/><ellipse class="cls-11" cx="205.45" cy="221.72" rx="147.57" ry="147.44"/><ellipse class="cls-12" cx="206.06" cy="220.77" rx="145.82" ry="145.69"/><ellipse class="cls-13" cx="206.66" cy="219.81" rx="144.07" ry="143.95"/><ellipse class="cls-14" cx="207.27" cy="218.86" rx="142.32" ry="142.19"/><ellipse class="cls-15" cx="207.87" cy="217.91" rx="140.57" ry="140.45"/><ellipse class="cls-16" cx="208.48" cy="216.95" rx="138.82" ry="138.7"/><ellipse class="cls-17" cx="209.09" cy="216" rx="137.07" ry="136.95"/><ellipse class="cls-18" cx="209.69" cy="215.05" rx="135.31" ry="135.2"/><ellipse class="cls-19" cx="210.3" cy="214.1" rx="133.56" ry="133.45"/><ellipse class="cls-20" cx="210.9" cy="213.14" rx="131.81" ry="131.7"/><ellipse class="cls-21" cx="211.51" cy="212.19" rx="130.06" ry="129.95"/><ellipse class="cls-22" cx="212.12" cy="211.24" rx="128.31" ry="128.2"/><ellipse class="cls-23" cx="212.72" cy="210.28" rx="126.56" ry="126.45"/><ellipse class="cls-24" cx="213.33" cy="209.33" rx="124.81" ry="124.7"/><ellipse class="cls-25" cx="213.93" cy="208.38" rx="123.06" ry="122.95"/><ellipse class="cls-26" cx="214.54" cy="207.42" rx="121.31" ry="121.2"/><ellipse class="cls-27" cx="215.14" cy="206.47" rx="119.55" ry="119.45"/><ellipse class="cls-28" cx="215.75" cy="205.52" rx="117.8" ry="117.7"/><ellipse class="cls-29" cx="216.36" cy="204.56" rx="116.05" ry="115.95"/><ellipse class="cls-30" cx="216.96" cy="203.61" rx="114.3" ry="114.2"/><ellipse class="cls-31" cx="217.57" cy="202.66" rx="112.55" ry="112.45"/><ellipse class="cls-32" cx="218.17" cy="201.71" rx="110.8" ry="110.7"/><ellipse class="cls-33" cx="218.78" cy="200.75" rx="109.05" ry="108.95"/><ellipse class="cls-34" cx="219.39" cy="199.8" rx="107.3" ry="107.2"/><ellipse class="cls-35" cx="219.99" cy="198.85" rx="105.54" ry="105.45"/><ellipse class="cls-36" cx="220.6" cy="197.9" rx="103.79" ry="103.7"/><ellipse class="cls-37" cx="221.2" cy="196.94" rx="102.04" ry="101.95"/><ellipse class="cls-38" cx="221.81" cy="195.99" rx="100.29" ry="100.2"/><ellipse class="cls-39" cx="222.42" cy="195.03" rx="98.54" ry="98.45"/><ellipse class="cls-40" cx="223.02" cy="194.08" rx="96.79" ry="96.7"/><ellipse class="cls-41" cx="223.63" cy="193.13" rx="95.04" ry="94.95"/><ellipse class="cls-42" cx="224.23" cy="192.18" rx="93.29" ry="93.2"/><ellipse class="cls-43" cx="224.84" cy="191.22" rx="91.54" ry="91.45"/><ellipse class="cls-44" cx="225.44" cy="190.27" rx="89.78" ry="89.71"/><ellipse class="cls-45" cx="226.05" cy="189.32" rx="88.03" ry="87.96"/><ellipse class="cls-46" cx="226.65" cy="188.37" rx="86.28" ry="86.21"/><ellipse class="cls-47" cx="227.26" cy="187.41" rx="84.53" ry="84.46"/><ellipse class="cls-48" cx="227.87" cy="186.46" rx="82.78" ry="82.71"/><ellipse class="cls-49" cx="228.47" cy="185.51" rx="81.03" ry="80.96"/><ellipse class="cls-50" cx="229.08" cy="184.55" rx="79.28" ry="79.21"/><ellipse class="cls-51" cx="229.68" cy="183.6" rx="77.52" ry="77.46"/><ellipse class="cls-52" cx="230.29" cy="182.65" rx="75.77" ry="75.71"/><ellipse class="cls-53" cx="230.9" cy="181.69" rx="74.02" ry="73.96"/><ellipse class="cls-54" cx="231.5" cy="180.74" rx="72.27" ry="72.21"/><ellipse class="cls-55" cx="232.11" cy="179.79" rx="70.52" ry="70.46"/><ellipse class="cls-56" cx="232.71" cy="178.84" rx="68.77" ry="68.71"/><ellipse class="cls-57" cx="233.32" cy="177.88" rx="67.02" ry="66.96"/><ellipse class="cls-58" cx="233.92" cy="176.93" rx="65.27" ry="65.21"/><ellipse class="cls-59" cx="234.53" cy="175.98" rx="63.52" ry="63.46"/><ellipse class="cls-60" cx="235.14" cy="175.02" rx="61.76" ry="61.71"/><ellipse class="cls-61" cx="235.74" cy="174.07" rx="60.01" ry="59.96"/><ellipse class="cls-62" cx="236.35" cy="173.12" rx="58.26" ry="58.21"/><ellipse class="cls-63" cx="236.95" cy="172.16" rx="56.51" ry="56.46"/><ellipse class="cls-64" cx="237.56" cy="171.21" rx="54.76" ry="54.71"/><ellipse class="cls-65" cx="238.17" cy="170.26" rx="53.01" ry="52.96"/><ellipse class="cls-66" cx="238.77" cy="169.31" rx="51.26" ry="51.21"/><ellipse class="cls-67" cx="239.38" cy="168.35" rx="49.51" ry="49.46"/><ellipse class="cls-68" cx="239.98" cy="167.4" rx="47.76" ry="47.71"/><ellipse class="cls-69" cx="240.59" cy="166.45" rx="46" ry="45.96"/><ellipse class="cls-70" cx="241.19" cy="165.49" rx="44.25" ry="44.21"/><ellipse class="cls-71" cx="241.8" cy="164.54" rx="42.5" ry="42.46"/><ellipse class="cls-72" cx="242.41" cy="163.59" rx="40.75" ry="40.71"/><ellipse class="cls-73" cx="243.01" cy="162.64" rx="39" ry="38.97"/><ellipse class="cls-74" cx="243.62" cy="161.68" rx="37.25" ry="37.22"/><ellipse class="cls-75" cx="244.22" cy="160.73" rx="35.5" ry="35.47"/><ellipse class="cls-76" cx="244.83" cy="159.78" rx="33.75" ry="33.72"/><ellipse class="cls-77" cx="245.43" cy="158.82" rx="31.99" ry="31.97"/><ellipse class="cls-78" cx="246.04" cy="157.87" rx="30.24" ry="30.22"/><ellipse class="cls-79" cx="246.65" cy="156.92" rx="28.49" ry="28.47"/><ellipse class="cls-80" cx="247.25" cy="155.96" rx="26.74" ry="26.72"/><ellipse class="cls-81" cx="247.86" cy="155.01" rx="24.99" ry="24.97"/><ellipse class="cls-82" cx="248.46" cy="154.06" rx="23.24" ry="23.22"/><ellipse class="cls-83" cx="249.07" cy="153.11" rx="21.49" ry="21.47"/><path class="cls-84" d="M357.92,249.47c0-.33-.06-.68-.1-1s-.06-.66-.11-1c0,0,0-.07,0-.11-.05-.35-.1-.7-.17-1v-.06c-.35-1.83-1.06-3.54-2.73-4.19h0a3.65,3.65,0,0,0-.92-.24c-2.44-.31-4,1-5.66,2.5-1.88,1.71-4.17,4-6.67,4.59a12.1,12.1,0,0,1-3.1.27v0a27.88,27.88,0,0,1-4.29-.47l-6.84-1.23c.27-3.37.4-6.79.4-10.28,0-1.08,0-2.15,0-3.22,0-.37,0-.74,0-1.12,0-.69-.05-1.38-.08-2.06,0-.46-.05-.92-.08-1.38s-.07-1.19-.11-1.78l-.12-1.51c-.05-.54-.09-1.08-.14-1.62s-.11-1.07-.17-1.6-.11-1-.17-1.48l-.21-1.71c-.06-.44-.13-.89-.19-1.33-.08-.61-.18-1.22-.27-1.82-.06-.39-.13-.78-.19-1.17,0,0,0-.06,0-.09l8.26-1.48a28.91,28.91,0,0,1,4.16-.47v0a12.79,12.79,0,0,1,3.24.26c2.49.6,4.78,2.89,6.66,4.6l.62.55c1.4,1.22,2.8,2.13,4.82,2h.22c3.61-.27,3.8-4.82,4.07-7.69a33.38,33.38,0,0,0-.55-9.92,33.51,33.51,0,0,0-2.81-9.51c-1-2.19-2.39-5.41-4.92-5.85h0l-.46,0h-.46a3.58,3.58,0,0,0-.54.09c-2.4.56-3.42,2.29-4.48,4.31-1.2,2.26-2.59,5.21-4.72,6.64a11.24,11.24,0,0,1-1.41.77c-.46.21-.93.39-1.41.56h0a28.23,28.23,0,0,1-4.18,1.07l-8.81,1.58a129.45,129.45,0,0,0-11.83-29.13l8.92-5.24a29.68,29.68,0,0,1,3.74-1.88v0a13.42,13.42,0,0,1,2.31-.73,7.81,7.81,0,0,1,.82-.14c2.54-.31,5.46,1,7.81,2,2.08.85,4,1.51,6.16.36,3.3-1.5,1.94-5.84,1.24-8.63a33.51,33.51,0,0,0-3.86-9.12,32.75,32.75,0,0,0-5.84-8c-.49-.49-1-1-1.62-1.58l-.13-.13-.26-.23-.24-.2-.17-.14-.32-.25-.08-.06a4.94,4.94,0,0,0-3.78-1.2h0a3.92,3.92,0,0,0-.49.13h0a2.75,2.75,0,0,0-.36.15,3.1,3.1,0,0,0-.47.26c-2.07,1.36-2.45,3.35-2.77,5.61-.36,2.54-.67,5.8-2.2,7.88a12.88,12.88,0,0,1-2.2,2.23v0a27.16,27.16,0,0,1-3.57,2.43l-9.36,5.5a129.58,129.58,0,0,0-20.32-22.95l7.64-9.26a28.46,28.46,0,0,1,2.88-3.08v0a12.81,12.81,0,0,1,2.64-1.91c2.29-1.17,5.48-.91,8-.83h.82c1.92,0,3.63-.2,5.1-1.81,2.59-2.57-.15-6.17-1.74-8.55a32.62,32.62,0,0,0-6.69-7.23,31.91,31.91,0,0,0-8.17-5.44c-.56-.27-1.19-.57-1.85-.85l-.07,0-.44-.18-.09,0-.45-.17-.07,0-.48-.16h0c-1.72-.52-3.47-.58-4.77.8a2.94,2.94,0,0,0-.32.37c-1.49,2-1.17,4-.71,6.25a27.75,27.75,0,0,1,.87,6.19,7.94,7.94,0,0,1-.29,2c-.08.26-.17.51-.26.76a14.87,14.87,0,0,1-1.06,2.11h0a27.36,27.36,0,0,1-2.54,3.54l-7.87,9.55a126,126,0,0,0-26.25-14.64l4.42-12.35a28.92,28.92,0,0,1,1.68-3.89h0A13.17,13.17,0,0,1,256,98.22c1.76-1.9,4.85-2.77,7.25-3.58,2.09-.69,3.91-1.41,4.89-3.6,0,0,0,0,0-.05h0a.41.41,0,0,0,.05-.09c1.57-3.32-2.21-5.75-4.51-7.43a41.18,41.18,0,0,0-18.22-6.75l-.69,0-.33,0c-.33,0-.67,0-1-.06h-.07c-.36,0-.71,0-1.07,0h0c-2,0-3.91.51-4.75,2.4a3.25,3.25,0,0,0-.19.5c-.73,2.4.24,4.17,1.42,6.11,1.34,2.19,3.15,4.88,3.3,7.48a13.62,13.62,0,0,1-.28,3.15h0a29.47,29.47,0,0,1-1.2,4.21L236.13,113a125.27,125.27,0,0,0-29.28-5V94.35a29.72,29.72,0,0,1,.27-4.24h0a13.1,13.1,0,0,1,.82-3.19c1-2.39,3.62-4.29,5.6-5.88,1.75-1.39,3.23-2.7,3.39-5.14h0s0-.07,0-.1c.37-3.66-4-4.63-6.73-5.41a32,32,0,0,0-9.69-1.17,31.78,31.78,0,0,0-9.7,1.17c-2.46.7-6.11,1.55-6.66,4.43h0a3.71,3.71,0,0,0-.07,1c.12,2.5,1.63,3.83,3.4,5.24,2,1.59,4.59,3.49,5.6,5.88a12.67,12.67,0,0,1,.8,3h0a28.68,28.68,0,0,1,.28,4.37V108a125.28,125.28,0,0,0-29.27,5l-4.49-12.54a29.22,29.22,0,0,1-1.17-4.07h0a14.9,14.9,0,0,1-.3-2.45c0-.29,0-.56,0-.84.15-2.6,2-5.29,3.29-7.48,1.19-1.94,2.16-3.71,1.44-6.11-.89-3.56-5.33-2.95-8.15-2.74a32.1,32.1,0,0,0-9.5,2.28,32.14,32.14,0,0,0-8.72,4.47l-.9.65,0,0-.4.3-.15.11-.29.23-.21.16-.23.2-.24.2-.18.16-.27.25-.12.12-.3.31,0,0a4.46,4.46,0,0,0-1.4,3.71h0a0,0,0,0,0,0,0,2.7,2.7,0,0,0,.08.39,3,3,0,0,0,.17.53c1,2.31,2.82,3,5,3.74,2.39.81,5.49,1.68,7.24,3.58a12.75,12.75,0,0,1,1.78,2.59h0a28.19,28.19,0,0,1,1.74,4L153,117.16a126,126,0,0,0-26.24,14.63l-7.87-9.54a28,28,0,0,1-2.47-3.42h0a15.4,15.4,0,0,1-1.12-2.22,6.81,6.81,0,0,1-.26-.76,7.51,7.51,0,0,1-.3-2,27.76,27.76,0,0,1,.88-6.19c.44-2.16.74-4.1-.57-6a1.1,1.1,0,0,0-.09-.14h0a.47.47,0,0,0-.06-.09c-2-3-6-.93-8.57.27a32,32,0,0,0-8.16,5.44,32.62,32.62,0,0,0-6.69,7.23l-.6.88c0,.07-.09.14-.14.21s-.11.17-.16.25a2.9,2.9,0,0,1-.19.29,1.74,1.74,0,0,1-.11.18l-.21.35-.08.14-.22.38a.47.47,0,0,1,0,.1c-.08.14-.15.28-.22.43l0,0c-.79,1.63-1.15,3.36-.07,4.88a3.2,3.2,0,0,0,.33.42c1.68,1.84,3.67,1.86,5.92,1.8,2.52-.08,5.72-.34,8,.83a12.44,12.44,0,0,1,2.53,1.82l0,0a28.41,28.41,0,0,1,3,3.17l7.64,9.26a129.29,129.29,0,0,0-20.32,23l-9.36-5.5a29.17,29.17,0,0,1-3.47-2.36h0a13.39,13.39,0,0,1-2.31-2.33c-1.52-2.08-1.84-5.34-2.2-7.88-.3-2.16-.67-4.06-2.51-5.41l-.17-.14h0l-.08-.07c-2.93-2.15-6,1.22-8,3.23a32.49,32.49,0,0,0-5.84,8,33.51,33.51,0,0,0-3.86,9.12c-.55,2.2-1.45,5.27-.23,7.28v0a3.18,3.18,0,0,0,.27.37l.06.07a2.06,2.06,0,0,0,.29.3l.05.05.09.08.22.17a2.8,2.8,0,0,0,.48.3c2.19,1.14,4.07.48,6.16-.37,2.34-.95,5.27-2.31,7.81-2a7.9,7.9,0,0,1,.8.14,14.25,14.25,0,0,1,2.2.68h0a27.8,27.8,0,0,1,3.86,1.93l8.92,5.24a130,130,0,0,0-11.83,29.12l-8.82-1.58a27.49,27.49,0,0,1-4-1h0a14.84,14.84,0,0,1-1.49-.58,10.26,10.26,0,0,1-1.46-.8c-2.14-1.42-3.53-4.37-4.72-6.63-.9-1.72-1.78-3.23-3.5-4l-.08,0a4.26,4.26,0,0,0-.66-.22l-.14,0h0a.29.29,0,0,1-.1,0c-3.49-1-5.18,3.22-6.41,5.81a33.41,33.41,0,0,0-2.81,9.51,33.36,33.36,0,0,0-.55,9.92c.25,2.59.44,6.4,3.13,7.44h0l.42.14a3.84,3.84,0,0,0,.51.1c2.45.31,4-1,5.67-2.49,1.88-1.72,4.17-4,6.66-4.6a12.53,12.53,0,0,1,3.09-.27v0a29.18,29.18,0,0,1,4.29.47l8.26,1.49a132.48,132.48,0,0,0-1.81,21.88c0,3.49.14,6.92.4,10.29l-6.85,1.23a27.44,27.44,0,0,1-4.15.46h0a13.18,13.18,0,0,1-3.23-.27c-2.49-.6-4.78-2.88-6.66-4.6-1.68-1.53-3.22-2.8-5.67-2.49-3.61.27-3.79,4.81-4.07,7.68a33.35,33.35,0,0,0,.56,9.92,32.87,32.87,0,0,0,2.81,9.51c.15.32.3.66.47,1A.61.61,0,0,0,47,270l.17.35a3,3,0,0,0,.16.31l.09.18c.06.13.14.26.21.4a.25.25,0,0,0,0,.07c1.13,2.07,2.69,4,5.21,3.38s3.43-2.3,4.49-4.32c1.19-2.26,2.58-5.21,4.72-6.64a12.69,12.69,0,0,1,1.41-.77c.45-.2.92-.39,1.41-.56h0a27.74,27.74,0,0,1,4.17-1.06l6.34-1.14a112.16,112.16,0,0,0,9.61,29.08l.23.45c.23.46.45.92.68,1.37l-5.14,3A27.65,27.65,0,0,1,77.1,296h0a15.31,15.31,0,0,1-2.3.73c-.28.05-.55.1-.83.13-2.54.31-5.46-1-7.8-2-.26-.11-.51-.21-.77-.3-1.74-.66-3.38-1-5.23-.14,0,0,0,0-.07,0h0l-.1,0c-3.29,1.5-1.93,5.84-1.24,8.64a33.65,33.65,0,0,0,3.86,9.12,32.44,32.44,0,0,0,5.84,8l.78.78a.6.6,0,0,0,.08.08c.09.1.19.19.3.29l.21.2.18.18.29.25.12.11.34.29.07.06.4.31h0A5,5,0,0,0,75,324h0a2.92,2.92,0,0,0,.46-.13h0l.06,0,.32-.13c.15-.08.31-.16.48-.27,2.07-1.36,2.44-3.35,2.77-5.61.35-2.54.67-5.8,2.2-7.88a12.53,12.53,0,0,1,2.2-2.23h0a28.13,28.13,0,0,1,3.58-2.45l5.36-3.15c.49.73,1,1.44,1.49,2.15l.3.41q2.39,3.31,5,6.43l.33.39q2.63,3.11,5.48,6l.38.38c1.9,1.92,3.87,3.76,5.91,5.54l.43.38q1.2,1,2.43,2L109.19,332a27.48,27.48,0,0,1-2.88,3.07h0a12.81,12.81,0,0,1-2.64,1.91c-2.29,1.17-5.49.91-8,.83l-.82,0c-1.92,0-3.63.21-5.1,1.82-2.6,2.56.15,6.17,1.74,8.55a32.85,32.85,0,0,0,6.69,7.23,32.6,32.6,0,0,0,8.16,5.45c.62.29,1.32.62,2.05.92l.19.07.3.12.31.11.19.07.39.13.1,0c1.7.5,3.42.54,4.7-.8a3.4,3.4,0,0,0,.34-.4c1.5-2,1.18-4,.72-6.23-.52-2.52-1.32-5.68-.58-8.17.07-.25.16-.5.25-.75a15.6,15.6,0,0,1,1.07-2.12h0a27.94,27.94,0,0,1,2.54-3.53l5.69-6.9.76.48.56.35q3.44,2.18,7,4.12l.63.34c2.39,1.27,4.83,2.48,7.32,3.61l.72.32q3.72,1.67,7.59,3.12l.79.29c.82.3,1.65.6,2.48.88l-3.87,10.83a28.83,28.83,0,0,1-1.67,3.89h0A13.48,13.48,0,0,1,145,364.3c-1.75,1.89-4.85,2.77-7.24,3.57-2.09.7-3.9,1.41-4.88,3.58l0,.07h0l0,.1c-1.58,3.31,2.21,5.74,4.51,7.43a32.14,32.14,0,0,0,8.72,4.47,32.1,32.1,0,0,0,9.5,2.28c2.68.2,6.65.71,8-2.26a4.56,4.56,0,0,0,.19-.49c.72-2.4-.25-4.17-1.44-6.11-1.33-2.18-3.14-4.88-3.29-7.47,0-.27,0-.55,0-.83a14.51,14.51,0,0,1,.28-2.33h0a29,29,0,0,1,1.2-4.2l4.17-11.65,2.11.5.94.21c1.36.3,2.73.59,4.11.86h0c1.38.26,2.77.5,4.16.73l1,.16c1.39.21,2.78.41,4.19.59h0c1.41.18,2.82.33,4.25.47l1.05.1c1.42.13,2.84.24,4.27.33h0c1.16.07,2.31.13,3.47.18v13.57a29.41,29.41,0,0,1-.26,4.24h0a13.11,13.11,0,0,1-.83,3.19c-1,2.39-3.62,4.29-5.6,5.88-1.73,1.38-3.2,2.68-3.38,5.09a.43.43,0,0,0,0,.05h0s0,.06,0,.1c-.36,3.66,4,4.63,6.73,5.41a31.81,31.81,0,0,0,9.7,1.16,31.71,31.71,0,0,0,9.69-1.16c2.59-.74,6.48-1.64,6.72-4.86a3.35,3.35,0,0,0,0-.55c-.12-2.51-1.62-3.83-3.39-5.24l-.77-.61c-1.84-1.46-4-3.18-4.84-5.27a1.15,1.15,0,0,0-.06-.17,13.91,13.91,0,0,1-.74-2.89h0a28.68,28.68,0,0,1-.29-4.38V354.59a149.16,149.16,0,0,0,29.6-4.13l4.17,11.65a29.22,29.22,0,0,1,1.17,4.07h0a13.81,13.81,0,0,1,.3,3.29c-.15,2.59-2,5.29-3.3,7.48l-.43.72a6.92,6.92,0,0,0-1.2,4.35.28.28,0,0,0,0,.09c0,.18.07.37.11.56a2.8,2.8,0,0,0,.06.28h0l0,.1c.88,3.56,5.32,3,8.14,2.75a32.1,32.1,0,0,0,9.5-2.28,32.49,32.49,0,0,0,8.73-4.47c.41-.3.87-.63,1.33-1l.16-.12.27-.21a2.43,2.43,0,0,1,.25-.2l.17-.15.31-.26.09-.09.35-.32,0,0c1.29-1.26,2.22-2.77,1.7-4.59a3.11,3.11,0,0,0-.16-.49c-1-2.31-2.82-3-5-3.75-2.4-.8-5.49-1.68-7.25-3.57a12.83,12.83,0,0,1-1.78-2.6h0a28.93,28.93,0,0,1-1.75-4l-3.87-10.82a127.58,127.58,0,0,0,27.88-13.52l5.69,6.9a28,28,0,0,1,2.48,3.42h0a15.29,15.29,0,0,1,1.12,2.21c.09.25.18.51.26.76.74,2.5-.06,5.66-.58,8.18-.05.27-.11.54-.16.81-.35,1.92-.43,3.67.87,5.42,2,3.05,6,.93,8.58-.26a32.3,32.3,0,0,0,8.16-5.44,32.89,32.89,0,0,0,6.69-7.24l.61-.9.08-.12c.07-.12.15-.23.22-.34l.14-.22c.06-.08.11-.17.17-.26L311,346l.13-.21.18-.33.09-.16.19-.37a.93.93,0,0,1,.05-.1c.85-1.77,1.19-3.66-.28-5.27-1.68-1.83-3.67-1.86-5.92-1.79-2.52.08-5.72.33-8-.83a13.57,13.57,0,0,1-2.54-1.83v0a29.23,29.23,0,0,1-3-3.16l-5.07-6.15a110.93,110.93,0,0,0,21.75-23.72l5.36,3.15a27.29,27.29,0,0,1,3.47,2.36h0a12.68,12.68,0,0,1,2.31,2.32c1.52,2.08,1.83,5.33,2.2,7.87.31,2.24.69,4.2,2.68,5.55h0l.08.06c2.93,2.16,5.94-1.21,8-3.22a32.94,32.94,0,0,0,5.84-8,33.51,33.51,0,0,0,3.86-9.12c.63-2.52,1.72-6.16-.44-8.08h0l0,0-.31-.25a4.92,4.92,0,0,0-.45-.28c-2.2-1.14-4.08-.48-6.17.37-2.34.95-5.26,2.31-7.8,2a7.62,7.62,0,0,1-.81-.14,13.29,13.29,0,0,1-2.2-.69v0a27.38,27.38,0,0,1-3.87-1.93l-5.13-3a111.68,111.68,0,0,0,10.52-30.91l6.34,1.14a27.61,27.61,0,0,1,4.05,1h0a16.09,16.09,0,0,1,1.5.59,10.66,10.66,0,0,1,1.45.79c2.13,1.43,3.52,4.37,4.72,6.63.26.51.52,1,.81,1.45a.83.83,0,0,0,.08.12c.11.18.22.35.34.52s.25.32.38.47l.1.12a5.19,5.19,0,0,0,2.77,1.65c3.48,1,5.18-3.22,6.41-5.81a33.93,33.93,0,0,0,2.81-9.51,35,35,0,0,0,.7-7.43C358.05,251.13,358,250.3,357.92,249.47Z" transform="translate(-0.53 -0.57)"/><path class="cls-85" d="M248.83,84l-.26,0c.27.28,3.5,1.12,3.92.53-.07-.26-.23-.86-2-.93a24.82,24.82,0,0,1-5.51-1.5c-3.26-1.18-6.5-2.4-9.77-3.53-.81-.28-1.25-.41-1.25-.41l-2-.3.1,0C238.14,80.64,238.75,80.83,248.83,84Z" transform="translate(-0.53 -0.57)"/><path class="cls-85" d="M185.37,89a1.48,1.48,0,0,0-.92.54c0,.06.06.14.09.21a4.23,4.23,0,0,1,.94.1c0,.07,0,.17,0,.24-2,1.12-4.41.83-6.41,1.91.63.45.68.52.86,1-.07,0-.07,0-1.22.7,1,4.19,8.48,1.13,7.84,5.64a22,22,0,0,0,0,2.93,7.38,7.38,0,0,1-.17,1.76c2.17-.16,2.57.14,3.22,1.42-1.94-.45-1.94-.45-2.42-.41-.08.32-.08.32.14,1-.18.08-.18.08-.79-.26-.83,1.72.43,2.7,2,2.17a1.84,1.84,0,0,0,1-.84c-.55,0-.74,0-.83-.5l.19-.11a2.31,2.31,0,0,1,1.08.45,11.59,11.59,0,0,1-.16,2.18c-2.86-1-4,3.93-3.33,6a4,4,0,0,0,1.42,1.69c.67,5.39,2.82,9,11.85,11.19.14-.46.3-1.09.45-1.55.76-2.37,1.95-4.57,2.72-6.94.25-.77,0-2,.4-2.67.58-1.1,2.23-1.31,3-1.41a3.69,3.69,0,0,0,1.88-.57c.23-.16.48-.44.69-.62,1.22-1.11,1.7-2.77,2.93-3.88a6.11,6.11,0,0,1,2.26-.81c4.68-1.38,5.62-2.2,6.64-4.5-1.6,0-1.6,0-2-.44a13.93,13.93,0,0,0,2.33.06,7.15,7.15,0,0,0-3-3c.41-.89-.43-1.54-.46-2.35a.76.76,0,0,1,.47,0c-.38-1.62-.38-1.62.52-2.81-1.09-.94-1.17-.91-1.74-.68,0,.34,0,.34,1.06,1.1-1,0-1,0-1.18-.14,0-.22,0-.22-2.38-2.68l.12-.19a7.61,7.61,0,0,0,1.83,1.1c-.81-.64-1-2.4-2.36-2-1.11-.64-1.29-1.92-2-2.83-.13.48.31.88.2,1.36-.35-.61-1.07-.9-1.33-1.58a17.79,17.79,0,0,1-.33-2.82c0-.07,0-.15,0-.22-3-.64-2.59.2-2.38.66-.37-.33-.37-.33-.62-.43,0,.13-.09.31-.12.44a1.5,1.5,0,0,1-.55-.23l.19-.1c-.09-.18-.21-.4-.87-.41a1.85,1.85,0,0,0,.49.43c-.2.07-.2.07-1.52-.47l.23-.13-.11-.3a14.5,14.5,0,0,0-6.28-.85c-2.37.29-4.51,1.63-7,1.54h-.29a11,11,0,0,0-6.26,2.15ZM209,86.9a.56.56,0,0,1,.13,0c.15,0,.22,0,.21,0l.1.07c.61.46.61.5.61.52s-.11,0-.33-.13-.46-.22-.52-.18C209,87,208.88,86.92,209,86.9Zm-.77.21s.23,0,.23.12,0,0-.05.06c.3.23.41.27.51.18a.17.17,0,0,1,.2,0c-.55-.26-.6-.3-.61-.33s.17,0,.24,0,0-.06,0-.1l.07.07c.4.38.52.68.27.67a1.53,1.53,0,0,1-.52-.2S208.13,87.18,208.2,87.11Z" transform="translate(-0.53 -0.57)"/><path class="cls-85" d="M223.44,84.5c-.13.37,0,.78-.2,1.13a6.78,6.78,0,0,0,1.31.53A13.73,13.73,0,0,0,223,86c-.28,0-.36.33-.57.46h0l3.32,1.29.42.09c.3.05.55-.18.84-.18l.4,0c1.07.23,2,.76,3.11,1a17.48,17.48,0,0,0,2.66.31c-4.19-2.08-4.34-2.36-4.4-2.45a12.13,12.13,0,0,1,3,.86c-.25-.29.52-.19.71-.41a3.05,3.05,0,0,0-1.68-.73,18.89,18.89,0,0,1-4.41-.76c.44-.08,1.27-.22.64-.7a6.7,6.7,0,0,0-1.07-.54A2.54,2.54,0,0,0,223.44,84.5Zm1.56.24c.05-.11.16,0,.23-.09h0s0,0-.27-.1a5.52,5.52,0,0,1-.63-.19s0,0,.31,0a2.06,2.06,0,0,0,.45.07s0,0-.1-.07l.23.08c.49.17.5.23.51.26s-.14,0-.19.1.16.12.65.28A4,4,0,0,1,225,84.74Z" transform="translate(-0.53 -0.57)"/><path class="cls-85" d="M232.11,111.09c-1.27.12-1.27.12-5,2.43-.94-1.34-1.32-1.36-2.92-1.49,0,.11,0,.25,0,.36-.22.44-.74.64-.93,1.1a1.53,1.53,0,0,0,.11.86c.68.08,1.29-.36,2-.25s.86.43.54.66-.89-.1-1.28.21c-.17.14,0,.5.15.72,1.64-.24,2.15-.26,3.07.77-.54.1-.7.14-.3.8,5.34.95,7.74-.68,9.71-3.42-.29-.36-.41-.81-.66-1.19C235.69,111.22,232.43,111.07,232.11,111.09Z" transform="translate(-0.53 -0.57)"/><path class="cls-85" d="M282.89,137.07a15.07,15.07,0,0,1-2.06-2.78c-1.05-1.55-1.16-1.71-2.7-1.19-1.86-1.74-1.86-1.74-6.92-4.49a22.17,22.17,0,0,1-2.38-1.43,2.22,2.22,0,0,1-.23-.77,5.92,5.92,0,0,0-1.18-2.56c-.93,0-1.76.91-2.76.3,0-1.64-.05-2-1.43-3.25l.17.35c.11.53.08.76-.59,1.39-.92.86-1,1.34.08,2.87-.54-.27-.95-.33-1.23-.17a1,1,0,0,0,.41.83c.12.1.36.07.48.15,1,.71,1.44,2.08,2.85,2.23-.81.28-.94.5-.31,1.46.38,0,.52-.43.83-.57.17.18.18.19.37.74.5.06.28-.66.49-1,1.06.37,1,1.65,1.78,2.24.54-.13,1.08-.28,1.6-.42a25.41,25.41,0,0,1,2.68,2.61c-.69.19-1.38.38-2.1.56.65,1.12,2,1.56,2.65,2.67-1,.57-1.12.66-1.17,1.27a1.65,1.65,0,0,0,.78.5c.48.07.92-.22,1.39-.16.7,1.28,0,2.62.19,3.92C277.21,140.43,281,140.17,282.89,137.07Z" transform="translate(-0.53 -0.57)"/><path class="cls-85" d="M360.12,215.67l-.05-.4c-1.75-15.24-7.89-27.53-13.51-37.85.09.05,9.19,9.07,12.84,32.61-.25-1.73-.5-3.51-.71-5-3.46-16.51-3.53-16.83-6.56-25.7-1.7-4.33-3.88-10.13-5.78-14.37l-.2-.44c-1.31-2.79-3.22-6.42-4.61-9.16-8.19-13.77-8.51-14.31-14.35-21.88-.08-.1-.16-.19-.23-.29.76,1,1.56,2,2.43,3.17l4.42,6.26.06.09c-2-2.49-3.62-5.23-5.66-7.67l-7.39-7.9a14.58,14.58,0,0,1-1.9-2.37l.1,0a32.4,32.4,0,0,1,4.28,4.12,128.41,128.41,0,0,0-14-14.83c-9-7.74-16.14-13.86-29.63-21.62A119.6,119.6,0,0,0,257,82.49v0c.19.44.45,1,.65,1.46.5,0,.5,0,9.51,6.07a11.07,11.07,0,0,0-2.79-.51c3.38,2.16,10.72,6.64,10.79,6.69l-1.3.45a11,11,0,0,0,3,1.17c-1.42.27-1.42.27-7.35-2.28a3.55,3.55,0,0,0,1.82-1.24c-1.33-1.15-1.33-1.15-15.23-2.89a4.47,4.47,0,0,0,.12,2.73c-.21.37-.5.86-.71,1.24a12.28,12.28,0,0,0,2.24,2.2c-.05.45-.12,1.06-.17,1.52,2.4.77,2.4.77,8.1,8.93-1.79,6.27,7.26,12,10.57,12.12a10.54,10.54,0,0,0,0-2.86c.29,0,.29,0,7.41,3.42.3.94.72,2.18,1.06,3.1-.2-.1-.2-.1-5-4.4-1.12,4.57,4.53,5.54,4.94,9.3a25.24,25.24,0,0,0-1.76,2.25c1.05,2.36,2.24,5,.17,11.19l-1.38-.33a7.41,7.41,0,0,1-.76,2.7,7.08,7.08,0,0,0-2.64.94c3.3,4.45,11.67,4.1,11.44,11.85-3.86,1.74-8.62.67-12,3.82,4.12,4.81,3.67,11.94,8.34,16.46,9-1.31,1.79,12.68,3.25,18.93-1.71,1.81-2.41,2.55-3.86,7.09-2.09,6.57-4.54,13-6.51,19.63-2.43,8.14,4.1,16,.71,24.2l11,20c4.86,1.79,8.46,5.61,12.92,8,3.41-3.88,22.07-13,24-13.35,1.48,2.08,1.7,2.88,2.09,5.66,3.77-2,3.77-2,5.7-1.95a8.7,8.7,0,0,1,.66,2.24l-.64,27.7c-.23,3.82-2.15,9.36-2.53,10.43-.44,1.23-10.94,30.27-28.89,47.64h0c5.73-3.58,16.47-15.21,21.93-21.94,9.3-12.55,9.86-13.3,14.66-21.72,7.38-14.4,7.66-15,10.93-23.84,5-15.68,5.18-16.3,6.92-25.6,2.31-16.33,2.49-17.67,2.61-28.69C360.73,227.17,360.56,220.58,360.12,215.67Zm-42.27-82.76a2.68,2.68,0,0,1,.76,1.68,5.48,5.48,0,0,1,2.45,1.65c-.35-1.07-1.3-3.89,1.53-2.48.67.33,4,2.6,5.08,4.31,2.38,3.85.45,3.68-.2,3.53a6.26,6.26,0,0,1-1.39-.57c-.47.46-.39,1.35-.2,2.88s.13,2-.14,2.47c-2.45,2.63-9.47-13.46-9.53-13.63C317.13,133.4,317.86,133.91,317.85,132.91ZM327,152.55l-.28-.33S326.78,152.26,327,152.55Zm-36.08-28.87c-.06,1.7-.46,2.22-2.68.77-.45.58,0,1.47-.69,2-.84-1.41-1.3-3-2.44-4.25.8.14,1.09,1,1.75,1.31.22-.21.08-.5.18-.74.22,0,.26,0,.68.29-.17-.88-1-1.28-1.43-2l.24-.11c.56-.36.71-.73.68-1.56-1.71-1.19-3.08-2.77-4.66-4.12a3.79,3.79,0,0,0-3.45-4.16c-1.86-.35-2.15-.4-4.59-2.92-1.28-1.32-1.45-3.28-2.72-4.61-1-1-2.79-1.1-3.18-2.79-.34-1.48,2.52,0,2.55.07a42.19,42.19,0,0,1,2.55,3.93,1.37,1.37,0,0,1-.29.07c6.79,4.82,6.79,4.82,7.18,5.16-.13.26-.42.24-.63.37-.09.67,2.11,1.05,2.84.48,1.16-.91.23-3.75,2.18-3.53a5,5,0,0,1,.44.86c.13.49.14.71-.51,1.85a2.24,2.24,0,0,0,.09,2.3c.69,1.32,1.68,1.86,1.86,1.43s-.23-.64,0-.95c.06-.06.22-.11.71.07.83.65,1.65,1.31,2.46,2a1.7,1.7,0,0,1,.1.32l-.1.12c-.84-.1-1.45-1-2.4-.66a.24.24,0,0,0-.1.28,6,6,0,0,0,.75,1c1.17,1.42,2.88,2.25,4,3.73.66.89.63,2,1.06,3C291.11,121.38,291,122.17,290.92,123.68Zm50.13,46.25a4.75,4.75,0,0,0,.15,2.7c-1.84.41-3.76.17-5.6.7-2.24-3.37-3,.75-3,.8-.11.68-.11.68,1.94,5.2-1.26,1.2-3.85,2.55-7-1.81-1.42-.1-2.71.83-4.15.55s-1.63-.66-2.63-1.85c-.42.2-.3.79-.72,1-.88-1.33-.27-3-.87-4.34.34.24.34.24.69,1.43a1.38,1.38,0,0,0-.28-1.49c-.6-.83-1.63-1.19-2.24-2s-.07-1.86-.34-2.75c-2.25-.41-2.25-.41-2.46-.61-1.44,1.79-1.92,2.4-5.06,3.87-6.82,3.19-7.39,4.11-9.24,8.44-1.76-.24-3.08,1.41-4.85,1.1-1.21-.21-1.77-1.16-2.48-2.37.71-.56,1.66-1.28,2.4-1.8,5.13-3.63,4.29-6.27,2.78-9.1-1.29-2.42-.85-3.32,1.57-8.28-.57-1.1-1.5-2-2-3.08,1.33-1.07,3.22-1.13,4.39-2.47.93-1,.85-1.7.67-3.29.82-.5,1.6.17,2.4.08,2.74,2.95,3.56,3.84,7.47,5.08,2.82.9,4.38,1.39,7,4.55a2.65,2.65,0,0,1,0,2.42c-.64,1-1.94,1.06-2.71,1.89,1.16,1.7,3.25,1.52,4.84,2.37.08-1.38-1.06-2.25-1.43-3.44.94-1.21-.41-2.61.33-3.84h0c-.71-1.39-3.33-1.8-2.59-3.86.56,0,.71,0,2.19,1-1.24-2.34-4.1-2.65-5.7-4.53a1.42,1.42,0,0,1-.45.46c-3.17.42-3.94-3.57-6.81-3.7-1.58-2.16-1.94-2.71-1.69-3.78.71.35,1.21,1.07,2.06,1.17a1.54,1.54,0,0,0,.24-.5c.48.42,1.09,1,1.61,1.38,2.47,1.79,5.72,1.83,8.19,3.62,2.19,1.6,2.87,4.48,5.08,6.06a21.17,21.17,0,0,0,2.43,1.52c.38,1.63,1.81,2.58,2.58,4a2.3,2.3,0,0,1,.24-.5l1,.12.17-.25c-.43-.7-1.08-1.22-1.48-1.94l.24.23.27,0a1.55,1.55,0,0,0-.8-1.32,2.4,2.4,0,0,0,.11-.23c1.24-.29.65-1,.62-1.08-1.44-1.81-3.65-2.76-5.11-4.56l.06-.25c.37-.05.75.1,1.12,0,0-.84-.85-1.13-1.19-1.76l.29,0c.7,0,.51-1,1.2-1.07.46,0,.67.41.93,1,0,0,1.81,3.1,1.93,3.19l.22-.25a2,2,0,0,0-.33-.84l1.4,1.94a2.72,2.72,0,0,0-.57,0c-.08.4-.1.57.59,1.13a1.56,1.56,0,0,0,.53-.2c1.16.39,2.46,3.26,2.47,3.29-.12-1.15,1.62-.2,2.39-.47.08-.44.11-.62-.44-1.9,1.57.81,1.57.81,1.87-3.56.31.55.73,1.27,1,1.82,4.36,7.75,5.49,11,6.39,13.58C342.45,169.17,341.37,169.11,341.05,169.93Z" transform="translate(-0.53 -0.57)"/><path class="cls-85" d="M190.41,299.1c-2-5.32-7.82-8.19-9-14.05-11.15-6.86-11.15-6.86-15.23-5.4-5.2-3.74-8.73-9.15-13.42-13.39.28-.49.65-1.14.94-1.63l-1.5-.72-.53,1.83c-1.67-2.05-4.57-2.13-6.38-3.95a6.51,6.51,0,0,1-1.65,3c-5.05-1.84-5.05-1.84-9.05-1.95-.55-2.85-3.39-3.89-4.79-6.06a10.35,10.35,0,0,1-1.55,3.14,21.23,21.23,0,0,1-1-3.6c-.11,0-11.17,1.52-11.86,7.16a12,12,0,0,0-2.73,2.28c-8.85-3.24-8.85-3.24-10.06-2.81-5.73-3-7-12.05-2.47-18.2l.15-1.62c-1.48-1.79-1.48-1.79-12.61-5.71,2.9-4.88,3.81-10.6,6.53-15.56-2.6-1.43-8.79-3.89-10,4-1,.37-1,.37-6.6,1.38-8.24-9.26-1-34.12,9.48-32.44,2.53.41,4.92,2.08,6.66,3.3,4.14-2.25,8.25.5,12.37.1,1.18,14.33,1.18,14.33,1.2,14.41-.86.62-2,1.49-2.81,2.16,8.59,2,7.2-8.6,6.73-12.09-.55-4.23-.55-4.23,8.47-13.57l1.84.32.28-.33c-.42-.18-.83-.36-1.23-.57s0-.72.31-.54.89.42,1.34.6c9.95-11.79,10-11.92,12.85-17.14l3.26-.11.84-1.31a9.68,9.68,0,0,1,3.07.45l1.47-.85-1.12-1.26c1.25-2.66,2.66-5.68,12.5-6.69l-.51.25a8.62,8.62,0,0,0-1.53,3.27,9.42,9.42,0,0,0,3.76-.92c13.58,7.53,13-4.67,12.55-8.59a35.89,35.89,0,0,1,5.65.64l.4,1.5c-.06.56-.06.56-.05.56a10.7,10.7,0,0,0,3.1-1.63c.13.53.3,1.25.42,1.79l1.55.55a8.56,8.56,0,0,0,1.94-3.22l-1.4-.75c.88-2.44.88-2.44-5.31-5.27a12.15,12.15,0,0,1,1.7-2.86l-2.36,0c-2.33,2.6-3.78,5.91-6.59,8.12-2.82-5.64-8-1.71-10.79,2.87a13.47,13.47,0,0,1,.94-3.68l-1.57-.09a12.94,12.94,0,0,0,3.06-2.06l-1-1.38c-2.77-.47-3.71-.62-8.06,1.29a5.54,5.54,0,0,1,3-1.94l.67,0h0c.36-.44.82-1,1.17-1.48,18.24-1.76,18.24-1.76,21.79-3.94.18-1.18.36-2.35.55-3.5-6.44-4-6.44-4-9.7-17.83-3.73,3.83-4.55,3.93-6.75,4.2-1.28-1.4-1.75-1.93-.28-4.78-3-4.64-3-4.64-8.71-5.53-4.59,6.71-4.59,6.71-5.83,7.61,2.58,7.38-6.62,9-6.71,9-1.49,5-1.49,5-4.5,7.49L134.73,140a5.67,5.67,0,0,0,1.66-2.84c-.36-.42-.84-1-1.21-1.38.55-.93,1.33-2.14,1.95-3-3.44-2.07-4.82-6.2-8.26-8.27-.32-1.9.34-3.75.33-5.63,1.14-1.14,1.14-1.14,20.54-10.06l-.75.63a33.88,33.88,0,0,1-4.33,3.37l.73,1.5a11.12,11.12,0,0,0,3-.86,10.13,10.13,0,0,0,3.19,1.17c.18-2.09-.75-4.13-.25-6.23v1.55c1.63-1.68,4.34-1.73,5.72-3.79l1.44.62s-1,4.3-2.95,6.16c5.85,3.1,5.85,3.1,6.34,5.52a33.84,33.84,0,0,1,4.85,2l.49-1.63-.8-1.42a10.61,10.61,0,0,1,2.76,1.83l2.51-2c-1.87-5.08-1.87-5.08-1.87-5.79a8.24,8.24,0,0,1,2.42,2.7c1.74,0,1.74,0,4.71-2.37-1.1-2.11-3.24-3.35-4.44-5.37l1-1.22c-.27-1.13-.27-1.13-4.29-6.33l.5-1.74c-.11,0-11.81-5-14,3.48l1.19,1.08a16.91,16.91,0,0,1-2.85,2.76l-1.53-.42c.26-.41.6-1,.85-1.38-1.5-3.83-1-4,7.66-7.73-1.89-1.6-1.89-1.6-9.64-.36l-.83,1.44,1.26,1c-2,2-2,2-5.88,2.69,2.2-5.54,2.2-5.54,6.32-7l-1.3-1c-1.12.55-2.58,1.35-3.65,2l1.77-1.22c-.25-.41-.58-1-.84-1.38a26.41,26.41,0,0,1,1.93-3.14l-.25-.52c-1.19-.39-2.68-.88-8.7,2.06l1.54,1.14c.69-.15,1.62-.37,2.33-.46a13,13,0,0,0-4.52,2c.05.48.11,1.11.15,1.58-3.27-.25-3.54.37-4.51,2.7a7.88,7.88,0,0,1,.1-3.17l-1.27-.93,1.43-.64,1-.48h0l-1.6.38,1.19-1.2a10.25,10.25,0,0,0-3.17-2c3.06-2.6,6.56-4.57,9.7-7-1.94-.37-1.94-.37-10.09,2.82.38-.2.77-.39,1.18-.58l1.46-.57c-6.46,2.09-17.56,8.18-21.74,10.47l0,0c-1.64,1-3.79,2.31-5.41,3.31l.35-.21,1.75-.89.9-.54h0l1.57-.8c-.69.49-1.53,1-2.36,1.45l1.65-.27c-4.39,4-8.55,8.34-13.09,12.23,1-.7,2.29-1.64,3.26-2.36-6.79,6.66-6.79,6.66-6.89,7.09-1,.75-1.92,1.5-2.86,2.27C61.63,160,61.63,160,60.22,163.43c-2.71,6.63-.52,13.95-2.9,20.63a28.78,28.78,0,0,0-.18,19.06c2.16-24.6,2.16-24.6,2.8-26.46l1.25,1.25c-8.54,40,6.72,52.2,11.73,56.23l1.67-.64c5.43,4,17.75,20.42,17.85,20.56-.07,1.27-.12,2.54-.17,3.81,3.72,1.83,5.26,6.21,9.2,7.77,0,.47-.11,1.09-.16,1.55a14.27,14.27,0,0,1,2.92,1.47l1-1.3-.81-1.45a7.83,7.83,0,0,1,2.78-1.67,17,17,0,0,0,1.78,2.65c2.87,12.6,2.87,12.6-1.86,20.53l-1.58.31c-.27,3.06-1.23,6-1.09,9.14h0a12.65,12.65,0,0,1,2.64,2.42l-1.75.89a9.1,9.1,0,0,0,.17,6.71c4.33,7.4,12.25,12.2,15,20.74.06.18.06.18,14.66,11.95,13.1,10.56-1.86,32.92,17.26,41l-1.05-1.27a8.6,8.6,0,0,1,2.47,2.26l-1.76-.37c2.7,2.63,2.7,2.63,3.78,3,.32.49,0,.44-.4.38A41,41,0,0,0,174,390.28c-6.11-1.95-6.11-1.95-7.74-5l-1.52-.35a7.9,7.9,0,0,0,.7-3.24L167,382a7.57,7.57,0,0,0-2.92-1.13,11.21,11.21,0,0,1,3.66-.79l.23-1.7c5.11-.43,5.15-.46,7.26-2.07-.18-.63-.43-1.47-.61-2.1,9.06-4,9.06-4,15.41-11.64-.63-5.17-.63-5.17,16.92-9.87,1.49-2.58,3.55-4.79,5-7.41.53-1.44,1-1.46,1.42-1.47.37-9.45,8-15.14,11.79-22.84,1.9-3.89,1-6.43-.14-10C212.11,311,202.62,301.08,190.41,299.1Zm-22.71-196a.65.65,0,0,1,.32,0c.21.07.41.19.62.26a.3.3,0,0,1-.08.08,1.44,1.44,0,0,1-1,.45c.21-.25.56-.67.29-.63a2.27,2.27,0,0,0-.55.25C167.34,103.42,167.46,103.16,167.7,103.14Zm-41.23,61.08c-2,1.54-4.17,1.71-7.21,1.93a4.47,4.47,0,0,1,2.49-2,6.28,6.28,0,0,1,1.67-.22c1.08,0,2.16.14,3.25.13Zm-5.56-9.86a3.7,3.7,0,0,1,4.84,0c-.48.81-1.33,0-2,.08-.19.51,0,.66.74.67s1.13.08.92.67c.28-.07.28-.07.92-1.3,1.17,0,1.32.72,1.39,1.73s.14,1.22.45,1.6l-.18.29c-.84,1.16-1.91.9-2-.15a2.63,2.63,0,0,1,0-.56c-1.46.78-2.41,2.56-3.22,4.37-.51-.14-.91.38-1.42.22a6.14,6.14,0,0,0,.41-2.33,5,5,0,0,1,.69-2.48c-1.07.4-.71,1.52-1.13,2.26l-.22.05a.8.8,0,0,1-.29-.15C122.62,156.4,122.12,155.81,120.91,154.36Zm12.87,7.44c0,.09-.1.2-.15.29-1.17,2-3.85,1.24-5.62.73a5.74,5.74,0,0,0-1.75-.35C128.08,160.92,130.26,160.73,133.78,161.8ZM123.5,98.72c.94-.43,2.53-1.11,2.76-.75,1.23-.83.7-.93.32-1s-.57-.11-.59-.27a10.16,10.16,0,0,1,3.59.37c-.53.23-1.16.12-1.66.46-.17.11-.66.49-.08.72s.79.32.15.59c-.95.41-1.08.19-1.17,0-.19-.33-.47-.28-2,.66-.06-.16-.16-.17-.62.07.08-.16.37-.25.37-.25.17,0,1.16-.7,1.14-.86s-.21,0-.9.17S123.4,99,123.5,98.72Zm-3.28,8.44c1.22.16,2-.18,3.3-1-.17.52,0,.63.88,1.1l-.41.14a8.08,8.08,0,0,1-2.35.38,7.69,7.69,0,0,0-2.74.57c1.13-.77.68-1,.44-1a1.22,1.22,0,0,0-.8.16A2,2,0,0,1,120.22,107.16Zm-2.3,0a.56.56,0,0,1-.29.35c-1.22.68-1.63.48-1.92.24l0,0C117.17,107.12,118.07,106.75,117.92,107.18Zm4.15,39c-.42.88-1.2,2.53,1,2.7a3.67,3.67,0,0,0-.59,2,1.89,1.89,0,0,1-.48,1.21c-.13.15-.34.31-.48.44.07-1.66-1.19-1.43-3.94-.93,0-.62-.49-1.1-.41-1.73s.09-.56.77-1.19c-1.61.17-3.11,1.06-4.8.82a2.28,2.28,0,0,1-1.21-.93C116.5,146.18,118.29,145.48,122.07,146.19Zm-6.08,9a1.26,1.26,0,0,0-.25-.35s0,0,.9-1.52a1.43,1.43,0,0,0,.5.23,3.88,3.88,0,0,0,1.67-.11c.84-.16,1.25-.19,1.46.24l-.25.2c-3.45,2.78-5.19,4.18-6.41,8.92-1.1-.51-1.26,1.45-2.39,1C111.11,161.26,113.9,156.66,116,155.22Zm10.92,110.31c0,.3,0,.51-.07.74-1.49,0-2.45-2-1.72-3,.87.3.22,1.57,1.17,1.81h.13a1.3,1.3,0,0,0-.41-1.43,1.25,1.25,0,0,1-.41-1.42C126.21,262.6,127,263.3,126.91,265.53Z" transform="translate(-0.53 -0.57)"/><path class="cls-85" d="M81,106.14a6.08,6.08,0,0,1-.65,3,15.35,15.35,0,0,1-2.36,3.58,14.92,14.92,0,0,1-3.59,3.13,6.54,6.54,0,0,1-5.06.48l-14.68-3.65c-1.49-.38-2.89-.76-4.17-1.14s-2.76-.85-4.4-1.41l-.2.35q2.94,2.13,5.85,4.53c1.93,1.6,3.83,3.17,5.68,4.73l8,6.7a21.78,21.78,0,0,1-1.14,2,24.26,24.26,0,0,1-1.77,2.42,15.6,15.6,0,0,1-1.84,1.87,4.07,4.07,0,0,1-1.83.92,3.88,3.88,0,0,1-2-.18A8,8,0,0,1,54.42,132L28.7,110.4a5.66,5.66,0,0,1,.32-3.51,12.67,12.67,0,0,1,2.17-3.62,14.58,14.58,0,0,1,3.64-3.13,6.44,6.44,0,0,1,5-.47l14.71,3.59c1.5.38,2.89.76,4.18,1.14s2.75.85,4.39,1.41l.17-.3c-2-1.42-3.9-2.89-5.77-4.41s-3.75-3.06-5.6-4.62l-8.33-7a17.8,17.8,0,0,1,1.14-2,21.47,21.47,0,0,1,1.77-2.42,8,8,0,0,1,3.7-2.77c1.19-.34,2.63.19,4.31,1.61Z" transform="translate(-0.53 -0.57)"/><path class="cls-85" d="M73.09,87.26a24.44,24.44,0,0,1-4-8.51,18.64,18.64,0,0,1,2.87-15.36A25.58,25.58,0,0,1,85.6,53.73a19.5,19.5,0,0,1,7.91-.53,19,19,0,0,1,7.6,2.89,24.24,24.24,0,0,1,6.7,6.61,25.24,25.24,0,0,1,4.07,8.53,18.64,18.64,0,0,1,.27,8.11A19,19,0,0,1,109,86.61a24.62,24.62,0,0,1-6.09,6,24.09,24.09,0,0,1-7.75,3.71,18.84,18.84,0,0,1-7.91.46,19.5,19.5,0,0,1-7.55-3A24.47,24.47,0,0,1,73.09,87.26Zm9.87-7q3.54,5,7.31,6a8.9,8.9,0,0,0,10.92-7.72q.28-3.9-3.25-8.89t-7.24-6a8.16,8.16,0,0,0-7.21,1.4,8.28,8.28,0,0,0-3.73,6.3Q79.43,75.29,83,80.28Z" transform="translate(-0.53 -0.57)"/><path class="cls-85" d="M145.38,35.47q-4.94,1.55-6.62,5.39t.05,9.34q1.75,5.58,5.61,7.67a11,11,0,0,0,8.81.55,13.05,13.05,0,0,0,4.23-2.1,32.36,32.36,0,0,0,3-2.7,6.73,6.73,0,0,1,2.38,1.61A7.06,7.06,0,0,1,164.35,58c.55,1.75.05,3.54-1.52,5.36s-4.33,3.37-8.31,4.62a27.7,27.7,0,0,1-8.46,1.31,18.83,18.83,0,0,1-7.78-1.67,18.61,18.61,0,0,1-6.47-5,25,25,0,0,1-4.55-8.75,24.17,24.17,0,0,1-1.19-9.3,19.62,19.62,0,0,1,2.27-7.79,19,19,0,0,1,5.13-6,23.57,23.57,0,0,1,7.4-3.8q5.91-1.84,9.74-.95c2.57.61,4.16,1.91,4.79,3.92a5.23,5.23,0,0,1,.08,3.15,7.2,7.2,0,0,1-1.32,2.52,22,22,0,0,0-4.15-.74A12.16,12.16,0,0,0,145.38,35.47Z" transform="translate(-0.53 -0.57)"/><path class="cls-85" d="M165.64,42.05a24.54,24.54,0,0,1,1-9.36A18.68,18.68,0,0,1,177.06,21a25.46,25.46,0,0,1,16.69-1.18,19.4,19.4,0,0,1,7,3.64,18.89,18.89,0,0,1,5,6.41,24.14,24.14,0,0,1,2.3,9.13,25,25,0,0,1-1,9.39,18.59,18.59,0,0,1-4,7.08,18.9,18.9,0,0,1-6.44,4.6,24.9,24.9,0,0,1-8.35,2,24.24,24.24,0,0,1-8.55-.85,18.79,18.79,0,0,1-7-3.71,19.42,19.42,0,0,1-4.91-6.45A24.73,24.73,0,0,1,165.64,42.05Zm12.07-.86q.43,6.09,3.13,8.93a8.9,8.9,0,0,0,13.34-.94c1.51-2.13,2.13-5.22,1.84-9.29s-1.32-7-3.09-8.87A8.18,8.18,0,0,0,186,28.48a8.29,8.29,0,0,0-6.45,3.46C178.05,34,177.42,37.13,177.71,41.19Z" transform="translate(-0.53 -0.57)"/><path class="cls-85" d="M227.57,49.24l-2.2,12.7A19.34,19.34,0,0,1,223,62a24.25,24.25,0,0,1-3.11-.34,13.55,13.55,0,0,1-2.65-.69,4.59,4.59,0,0,1-1.78-1.16,3.67,3.67,0,0,1-.87-1.85,8.47,8.47,0,0,1,.08-2.85l5.38-31.17a3,3,0,0,1,1.13-2,5.45,5.45,0,0,1,2.3-.86,25.21,25.21,0,0,1,5.43-.26,52.86,52.86,0,0,1,6.42.73q9.15,1.57,13.12,6.21a12.94,12.94,0,0,1,2.84,11.19A11.74,11.74,0,0,1,248,45.53a15.34,15.34,0,0,1-5.81,3.63q1.83,3.66,3.66,6.9a41.67,41.67,0,0,1,2.75,5.79,6.37,6.37,0,0,1-3,3.13,6.87,6.87,0,0,1-4.15.54,8.6,8.6,0,0,1-2.46-.76,6.3,6.3,0,0,1-1.7-1.25A8.06,8.06,0,0,1,236,61.8a18.75,18.75,0,0,1-.93-2.07l-4-9.89Zm5.69-8.09a5.86,5.86,0,0,0,4.19-.6A4.92,4.92,0,0,0,239.57,37a4.64,4.64,0,0,0-1-4.08c-.93-1-2.57-1.77-4.91-2.18a15,15,0,0,0-1.6-.2c-.4,0-.86,0-1.36,0L229,40.42Z" transform="translate(-0.53 -0.57)"/><path class="cls-85" d="M257.54,47.48a24.22,24.22,0,0,1,5.23-7.83,18.63,18.63,0,0,1,14.65-5.46,25.48,25.48,0,0,1,15.33,6.71,19.44,19.44,0,0,1,4.53,6.49,19.1,19.1,0,0,1,1.44,8,24.34,24.34,0,0,1-2.21,9.15,25.18,25.18,0,0,1-5.22,7.87,18.74,18.74,0,0,1-6.82,4.42,19,19,0,0,1-7.84,1.07,24.8,24.8,0,0,1-8.33-2.1,24.15,24.15,0,0,1-7.17-4.72,18.63,18.63,0,0,1-4.47-6.54,19.21,19.21,0,0,1-1.34-8A24.38,24.38,0,0,1,257.54,47.48Zm11.08,4.85q-2.46,5.6-1.39,9.36a8.18,8.18,0,0,0,4.88,5.44,8.26,8.26,0,0,0,7.37-.08q3.5-1.77,5.95-7.36t1.39-9.29A8.16,8.16,0,0,0,281.91,45a8.31,8.31,0,0,0-7.33,0Q271.07,46.72,268.62,52.33Z" transform="translate(-0.53 -0.57)"/><path class="cls-85" d="M321.5,107.48a6.2,6.2,0,0,1-3-.55,16.05,16.05,0,0,1-3.66-2.26,15,15,0,0,1-3.23-3.49,6.55,6.55,0,0,1-.63-5.05l3.21-14.76q.49-2.25,1-4.2c.34-1.3.76-2.78,1.27-4.43l-.35-.2q-2.06,3-4.36,6t-4.56,5.81l-6.46,8.16a18.2,18.2,0,0,1-2-1.08,21.58,21.58,0,0,1-2.47-1.7,14.87,14.87,0,0,1-1.93-1.78,4.12,4.12,0,0,1-1-1.8,4,4,0,0,1,.13-2,7.62,7.62,0,0,1,1.38-2.38l20.86-26.33a5.6,5.6,0,0,1,3.51.22,12.72,12.72,0,0,1,3.69,2,14.48,14.48,0,0,1,3.23,3.55,6.37,6.37,0,0,1,.63,5L323.6,81q-.51,2.25-1,4.2c-.34,1.3-.77,2.78-1.28,4.43l.31.16q2-3,4.24-5.9c1.46-1.92,2.95-3.83,4.45-5.73l6.76-8.53a18.25,18.25,0,0,1,2,1.08,22,22,0,0,1,2.47,1.7,8.07,8.07,0,0,1,2.89,3.61c.37,1.18-.12,2.64-1.48,4.36Z" transform="translate(-0.53 -0.57)"/><path class="cls-85" d="M361.45,95.84a13.82,13.82,0,0,1,3.13,2,18.37,18.37,0,0,1,3.34,3.31,16.63,16.63,0,0,1,2.88,5.3,5.11,5.11,0,0,1-.38,4.49c-1.34,2.07-2.95,4.42-4.81,7.06s-3.81,5.33-5.84,8.09-4,5.48-6,8.15-3.74,5-5.27,7.06a5.48,5.48,0,0,1-2.68-1,11.76,11.76,0,0,1-2.8-2.67,12,12,0,0,1-1.46-2.32,4.73,4.73,0,0,1-.47-1.92,3.94,3.94,0,0,1,.41-1.77,12.1,12.1,0,0,1,1.12-1.84l2.92-3.8-7.46-9.6c-1.28.54-2.59,1.11-3.95,1.7s-2.67,1.16-3.95,1.71a18.16,18.16,0,0,1-1.67-1.22,12.07,12.07,0,0,1-1.73-1.84,8.77,8.77,0,0,1-2.18-4.73,3.79,3.79,0,0,1,1.56-3.3,7.28,7.28,0,0,1,1.66-.94l2.12-.88c1.15-.49,2.6-1.07,4.36-1.72S338,103.77,340,103s4.18-1.49,6.39-2.23l6.23-2.11c1.95-.67,3.7-1.24,5.25-1.73S360.62,96.08,361.45,95.84Zm-1.91,11.67q-2.81,1-6.26,2.18c-2.3.8-4.59,1.68-6.85,2.64l5.12,6.57c1.52-2,3-3.93,4.42-5.85s2.7-3.67,3.82-5.22Z" transform="translate(-0.53 -0.57)"/><path class="cls-85" d="M37.62,338.23a24.32,24.32,0,0,1,8.11-4.8,18.74,18.74,0,0,1,15.57,1.4,25.51,25.51,0,0,1,10.92,12.68,19.38,19.38,0,0,1,1.28,7.81,19,19,0,0,1-2.16,7.84,24.41,24.41,0,0,1-6,7.29,25,25,0,0,1-8.11,4.84,18.66,18.66,0,0,1-8.06,1,19.06,19.06,0,0,1-7.54-2.42,24.69,24.69,0,0,1-6.59-5.49,24,24,0,0,1-4.43-7.35,18.72,18.72,0,0,1-1.2-7.83,19.21,19.21,0,0,1,2.25-7.78A24.57,24.57,0,0,1,37.62,338.23Zm7.9,9.16q-4.64,4-5.31,7.84a8.89,8.89,0,0,0,8.73,10.13q3.91-.09,8.55-4.07c3.06-2.63,4.81-5.22,5.28-7.77a8.13,8.13,0,0,0-2.08-7,8.3,8.3,0,0,0-6.63-3.11C51.46,343.39,48.61,344.74,45.52,347.39Z" transform="translate(-0.53 -0.57)"/><path class="cls-85" d="M91.05,412.79a6.13,6.13,0,0,1-3-.39,15.51,15.51,0,0,1-3.77-2.06A14.8,14.8,0,0,1,80.81,407a6.5,6.5,0,0,1-.9-5l2.43-14.91c.25-1.52.51-2.94.79-4.25s.62-2.82,1-4.49l-.37-.18q-1.87,3.1-4,6.2c-1.43,2.06-2.85,4.07-4.24,6.05l-6,8.49a20.1,20.1,0,0,1-2.07-1,24.31,24.31,0,0,1-2.56-1.57,15.9,15.9,0,0,1-2-1.68A4.07,4.07,0,0,1,61.78,393a3.92,3.92,0,0,1,0-2,7.67,7.67,0,0,1,1.25-2.45l19.43-27.39a5.61,5.61,0,0,1,3.53,0A12.48,12.48,0,0,1,89.8,363a14.18,14.18,0,0,1,3.41,3.37,6.38,6.38,0,0,1,.9,4.95l-2.37,14.95c-.26,1.52-.52,2.94-.79,4.25s-.63,2.81-1,4.49l.32.14q1.88-3.12,3.92-6.11t4.14-6l6.3-8.87a16.54,16.54,0,0,1,2.07,1,22.68,22.68,0,0,1,2.56,1.56,8.06,8.06,0,0,1,3.07,3.45c.44,1.17,0,2.64-1.25,4.43Z" transform="translate(-0.53 -0.57)"/><path class="cls-85" d="M116.78,389a5.8,5.8,0,0,1,8.19-3.33l20.43,8.6a7.76,7.76,0,0,1,0,2.12,8.8,8.8,0,0,1-.65,2.5,4.89,4.89,0,0,1-2.43,2.91,4,4,0,0,1-3.11-.14l-13.07-5.51-2.43,5.76,13.94,5.87a8.86,8.86,0,0,1,0,2.09,8.45,8.45,0,0,1-.64,2.46,5,5,0,0,1-2.4,2.93,3.91,3.91,0,0,1-3.08-.14l-11.4-4.79-2.74,6.49,15.92,6.71a8.17,8.17,0,0,1,0,2.12,8.67,8.67,0,0,1-.66,2.49,5.06,5.06,0,0,1-2.44,2.95,4,4,0,0,1-3.12-.12l-18.09-7.61a5.79,5.79,0,0,1-3.33-8.18Z" transform="translate(-0.53 -0.57)"/><path class="cls-85" d="M180.31,411.34a16.55,16.55,0,0,1,2.38-.59,12.93,12.93,0,0,1,7.84,1,3.66,3.66,0,0,1,2.09,2.62q.52,2.81,1,5.23c.31,1.61.6,3.16.89,4.64s.58,2.95.85,4.41.52,3,.76,4.57l.33,0c.61-2.69,1.17-5.27,1.67-7.72s1-4.86,1.43-7.23.9-4.71,1.35-7,.9-4.68,1.35-7.07a10.66,10.66,0,0,1,5.4-1,8.4,8.4,0,0,1,4.21,1.4,3.88,3.88,0,0,1,1.53,3.75,39.18,39.18,0,0,1-.62,4.17q-.51,2.69-1.27,6t-1.71,6.95q-.95,3.63-2,6.92t-2,5.94a31.49,31.49,0,0,1-1.76,4.08,7.83,7.83,0,0,1-3.4,1.29,18.73,18.73,0,0,1-4.74.24,15.13,15.13,0,0,1-5.26-1.24,4,4,0,0,1-2.47-2.58q-.66-2.75-1.38-6.51c-.49-2.5-1-5.26-1.53-8.26-.85,2.85-1.71,5.64-2.59,8.35s-1.67,5-2.35,6.9a7.68,7.68,0,0,1-3.13,1.31,15.53,15.53,0,0,1-4.47.26,16.59,16.59,0,0,1-5.4-1.26,5.1,5.1,0,0,1-3-2.61,23.77,23.77,0,0,1-1-3.69c-.34-1.62-.69-3.46-1-5.53s-.67-4.3-1-6.71-.63-4.81-.87-7.21-.46-4.73-.64-7-.3-4.36-.33-6.25a9.55,9.55,0,0,1,2.74-1.41,9,9,0,0,1,3.67-.46,7.34,7.34,0,0,1,4.1,1.43,5.14,5.14,0,0,1,1.76,3.87q.56,6.92.91,11.52t.57,7.55c.14,2,.24,3.49.29,4.57s.12,1.94.21,2.57l.33,0q.81-2.64,1.52-4.87c.47-1.49,1-3,1.46-4.5s1-3.13,1.55-4.87S179.69,413.58,180.31,411.34Z" transform="translate(-0.53 -0.57)"/><path class="cls-85" d="M218.74,423a24.25,24.25,0,0,1-.22-9.41,18.72,18.72,0,0,1,8.85-12.88,25.59,25.59,0,0,1,16.41-3.3,19.43,19.43,0,0,1,7.44,2.72,19.08,19.08,0,0,1,5.78,5.72,24.19,24.19,0,0,1,3.44,8.76,24.81,24.81,0,0,1,.26,9.43,18.82,18.82,0,0,1-3,7.54,19.08,19.08,0,0,1-5.8,5.38,24.81,24.81,0,0,1-8,3.05,24.27,24.27,0,0,1-8.59.26,18.87,18.87,0,0,1-7.42-2.79,19.34,19.34,0,0,1-5.69-5.77A24.6,24.6,0,0,1,218.74,423Zm11.86-2.38q1.2,6,4.24,8.46A8.91,8.91,0,0,0,248,426.44q1.85-3.45.64-9.45t-4.2-8.4a8.16,8.16,0,0,0-7.16-1.64,8.29,8.29,0,0,0-6,4.25Q229.4,414.62,230.6,420.62Z" transform="translate(-0.53 -0.57)"/><path class="cls-85" d="M282,413.07l5.42,11.7a19,19,0,0,1-1.94,1.34,23.85,23.85,0,0,1-2.75,1.5,13.67,13.67,0,0,1-2.57.92,4.52,4.52,0,0,1-2.12.06,3.75,3.75,0,0,1-1.78-1,8.29,8.29,0,0,1-1.55-2.39l-13.29-28.71a3,3,0,0,1-.21-2.31,5.41,5.41,0,0,1,1.4-2,25,25,0,0,1,4.32-3.29,52.33,52.33,0,0,1,5.7-3q8.43-3.9,14.33-2.33a13,13,0,0,1,8.7,7.59,11.79,11.79,0,0,1,1,7.37,15.44,15.44,0,0,1-2.72,6.28q3.58,2,6.93,3.61a40.48,40.48,0,0,1,5.55,3.2,6.27,6.27,0,0,1-.71,4.29,6.85,6.85,0,0,1-3.11,2.81,8.55,8.55,0,0,1-2.46.76,6.1,6.1,0,0,1-2.1-.06,7.7,7.7,0,0,1-2-.72,20.11,20.11,0,0,1-2-1.17l-8.93-5.86Zm.09-9.88a5.93,5.93,0,0,0,3.11-2.88,4.91,4.91,0,0,0-.28-4.13,4.66,4.66,0,0,0-3.12-2.81q-2-.5-5.28,1a14,14,0,0,0-1.43.73c-.35.22-.73.46-1.14.75l4.23,9.14Z" transform="translate(-0.53 -0.57)"/><path class="cls-85" d="M323.39,405.39a5.81,5.81,0,0,1-8.74-1.35l-20.53-28c.34-.37.91-.93,1.68-1.69a21.37,21.37,0,0,1,2.36-2,14.29,14.29,0,0,1,2.33-1.42,4.79,4.79,0,0,1,2.1-.49,3.65,3.65,0,0,1,2,.64,8.35,8.35,0,0,1,2,2l15.69,21.41,12.42-9.09a8.83,8.83,0,0,1,1.87,1.08,8.37,8.37,0,0,1,1.86,1.85,5.17,5.17,0,0,1,1.32,3.73,4.13,4.13,0,0,1-1.79,2.68Z" transform="translate(-0.53 -0.57)"/><path class="cls-85" d="M361.22,373.61c-.51.57-1.11,1.2-1.8,1.9s-1.44,1.41-2.25,2.1-1.63,1.36-2.48,2a15.73,15.73,0,0,1-2.58,1.62c-2.34,1.2-4.38,1-6.12-.53l-23.36-20.94a3,3,0,0,1-1.11-2,5.52,5.52,0,0,1,.48-2.4,28.45,28.45,0,0,1,3.16-5.38q1.93-2.61,3.64-4.5a33,33,0,0,1,7.3-6.23,19.58,19.58,0,0,1,7.82-2.82,17.69,17.69,0,0,1,8.14.94,24.63,24.63,0,0,1,8.22,5.11,25.12,25.12,0,0,1,5.91,7.46,18.15,18.15,0,0,1,1.93,7.91,19.17,19.17,0,0,1-1.76,8A29.64,29.64,0,0,1,361.22,373.61Zm-9.82-3.75c.39-.3.85-.7,1.38-1.19s1-1,1.43-1.43a12.83,12.83,0,0,0,2.3-3.57,8.4,8.4,0,0,0,.65-3.85,9.71,9.71,0,0,0-1.29-4,16.58,16.58,0,0,0-3.51-4.18q-4.5-4-8.67-4a9.76,9.76,0,0,0-7.3,3.56q-.63.7-1.23,1.47c-.4.51-.79,1.05-1.17,1.61Z" transform="translate(-0.53 -0.57)"/></g></svg>