<?xml version="1.0" encoding="utf-8"?>
<svg xmlns="http://www.w3.org/2000/svg" xmlns:xlink="http://www.w3.org/1999/xlink" version= "1.1" width="1272px" height="1273px" viewBox="-276 75 1272 1273">
<g id="layer1">
<g style="fill:rgb(86,185,249); fill-opacity:0.99607843; stroke-linejoin: miter">
<path d="M-276.001,74.11319C-276.23593,74.11319,-276.46124,74.20651,-276.62738,74.372635C-276.79352,74.53876,-276.8868,74.76407,-276.8868,74.999L-276.8858,1348.0C-276.8858,1348.4893,-276.48923,1348.8859,-276.0,1348.8859L996.001,1348.8868C996.2359,1348.8868,996.4612,1348.7935,996.6273,1348.6273C996.79346,1348.4612,996.8868,1348.236,996.8868,1348.001L996.8858,75.0C996.8858,74.51078,996.4892,74.11419,996.0,74.11419L-276.001,74.11319 Z"/>
</g>
</g>
<g id="layer2">
<g>
<g style="fill:rgb(0,0,0); fill-opacity:1.0; stroke-linejoin: miter">
<path d="M115.79544,381.567L168.38562,381.06363L220.97716,380.55975L227.13426,1022.8055Q174.5437,1023.31036,121.953476,1023.81476Q118.87439,702.6927,115.79544,381.567 Z"/>
</g>
<g style="fill:rgb(255,255,255); fill-opacity:1.0; stroke-linejoin: miter">
<path d="M211.60873,400.08704L133.61197,400.1435L134.03296,992.55225L212.02972,992.4978L211.60873,400.08704 Z"/>
</g>
<g style="fill:rgb(0,0,0); fill-opacity:1.0; stroke-linejoin: miter">
<path d="M27.455448,1016.5174L174.46509,1015.1081L321.47543,1013.69867Q321.5862,1025.3182,321.69766,1036.9369Q174.68752,1038.3478,27.67773,1039.7577Q27.566555,1028.1376,27.455448,1016.5174 Z"/>
</g>
<g style="fill:rgb(0,0,0); fill-opacity:1.0; stroke-linejoin: miter">
<path d="M148.04318,1023.91534L174.54735,1023.6617L201.0515,1023.408Q202.09802,1132.5199,203.14395,1241.6312Q176.6395,1241.8868,150.13504,1242.1412Q149.08914,1133.0282,148.04318,1023.91534 Z"/>
</g>
<g style="fill:rgb(0,0,0); fill-opacity:1.0; stroke-linejoin: miter">
<path d="M84.5805,1253.6205L176.7434,1252.7372L268.90616,1251.8544Q268.7733,1237.9882,268.64078,1224.1229Q176.47768,1225.007,84.31451,1225.8922Q84.447395,1239.7557,84.5805,1253.6205 Z"/>
</g>
<g style="fill:rgb(0,0,0); fill-opacity:1.0; stroke-linejoin: miter">
<path d="M163.03795,140.36897L166.0782,140.34L169.118,140.31113Q170.192,252.30502,171.26535,364.29932Q168.22534,364.3288,165.18558,364.35873Q164.11186,252.36356,163.03795,140.36897 Z"/>
</g>
<g style="fill:rgb(0,0,0); fill-opacity:1.0; stroke-linejoin: miter">
<path d="M156.585,272.46298L167.34398,272.35962L178.10269,272.2567Q178.29343,292.17603,178.4844,312.095Q167.72543,312.19858,156.9666,312.30182Q156.77579,292.3823,156.585,272.46298 Z"/>
</g>
<g style="fill:rgb(0,0,0); fill-opacity:1.0; stroke-linejoin: miter">
<path d="M142.0161,346.24484L168.04984,345.99542L194.0833,345.74585Q194.17648,355.3954,194.26878,365.0448Q168.23526,365.29468,142.20135,365.54422Q142.10873,355.89465,142.0161,346.24484 Z"/>
</g>
<g style="fill:rgb(0,0,0); fill-opacity:0.32941177; stroke-linejoin: miter">
<path d="M220.97716,380.55975L188.41655,380.87192Q188.34105,372.99182,188.26529,365.11194Q191.26616,365.07343,194.26878,365.0448Q194.17648,355.3954,194.0833,345.74585L188.08041,345.8035Q187.84361,321.0884,187.60646,296.3731L182.03418,296.4266Q182.0122,351.85532,181.98868,407.27542L181.98708,407.27576Q181.98422,407.27557,181.97972,407.27563Q181.98662,412.20523,181.98463,417.08618Q181.97885,430.5944,181.97328,444.06882Q181.97108,448.78934,181.96933,453.46347Q181.96704,458.33914,181.9649,463.17917Q181.9274,552.67535,181.88957,642.13525Q181.84167,755.1813,181.7938,868.1829Q181.7676,930.3735,181.7412,992.5185L181.73936,992.519Q181.7339,992.51874,181.72668,992.51874Q181.69182,1108.777,181.64299,1224.9576L181.6411,1224.9586Q181.6345,1224.9576,181.62611,1224.9569Q181.63942,1233.4423,181.63571,1241.8385L181.63403,1241.8395Q181.62746,1241.8385,181.6193,1241.8387Q181.63342,1247.3092,181.63087,1252.6903L268.90616,1251.8544Q268.7733,1237.9882,268.64078,1224.1229Q235.81151,1224.4379,202.98213,1224.7526Q202.08788,1131.4313,201.1927,1038.1097Q261.4434,1037.5153,321.69766,1036.9369Q321.5862,1025.3182,321.47543,1013.69867L227.05556,1014.60394L221.92491,479.4572L221.42604,427.3704L220.97716,380.55975 Z M211.62141,417.62067Q211.62791,426.4581,211.63417,435.29553L211.63054,435.2858L211.6248,435.25735Q211.62389,426.435,211.61952,417.6099 Z M211.66124,472.67358L211.65941,472.67395Q211.6613,472.68353,211.661,472.69342L211.6595,472.69373Q211.65916,472.66772,211.65916,472.66272 Z M211.66115,472.84076Q211.66124,472.95905,211.66148,473.0775Q211.66148,473.08667,211.66154,473.09576L211.65761,473.08563C211.03206,472.67633,210.40465,472.2751,209.77586,471.87195C210.40535,472.26758,211.03334,472.66827,211.65932,473.06665Q211.65926,472.9746,211.65926,472.88287Q211.65941,472.85626,211.6595,472.8299 Z"/>
</g>
<g style="fill:rgb(0,0,0); fill-opacity:0.4392157; stroke-linejoin: miter">
<path d="M340.07602,934.21985L338.04514,934.84296L338.04434,934.8409L340.07602,934.21985 Z"/>
</g>
<g style="fill:rgb(0,0,0); fill-opacity:0.4392157; stroke-linejoin: miter">
<path d="M340.07602,934.21985L338.03305,934.85474L338.04514,934.84296L340.07602,934.21985 Z"/>
</g>
<g style="fill:rgb(0,0,0); fill-opacity:1.0; stroke-linejoin: miter">
<path d="M147.54498,296.75635L167.57558,296.56473L187.60646,296.3731Q188.13773,351.7921,188.66869,407.2113Q168.63902,407.40356,148.60811,407.59656Q148.07706,352.1763,147.54498,296.75635 Z"/>
</g>
<g style="fill:rgb(227,237,242); fill-opacity:0.99607843; stroke-linejoin: miter">
<path d="M112.98572,1005.8215L112.98474,1005.8214L112.98572,1005.8215L112.98474,1005.8214L112.98572,1005.8215 Z"/>
</g>
<g style="fill:rgb(227,237,242); fill-opacity:0.99607843; stroke-linejoin: miter">
<path d="M303.16327,489.44995L303.16388,489.45078L303.16327,489.44995L303.16388,489.45078L303.16327,489.44995 Z"/>
</g>
</g>
<g>
<g style="fill:rgb(0,0,0); fill-opacity:0.4392157; stroke-linejoin: miter">
<path d="M575.27765,941.66644C575.28204,941.64764,575.2865,941.6283,575.29065,941.60956L575.3001,941.60205C575.2967,941.62256,575.29224,941.6414,575.2877,941.66046 Z"/>
</g>
<g style="fill:rgb(125,139,150); fill-opacity:0.99607843; stroke-linejoin: miter">
<path d="M391.411,764.15015L391.4101,764.1504L391.411,764.15015L391.4101,764.1504L391.411,764.15015 Z"/>
</g>
<g style="fill:rgb(0,0,0); fill-opacity:1.0; stroke-linejoin: miter">
<path d="M473.68903,722.1427L609.6186,722.1437L609.6186,813.2714L473.68903,813.2724L473.68903,722.1427 Z"/>
</g>
<g style="fill:rgb(0,0,0); fill-opacity:1.0; stroke-linejoin: miter">
<path d="M477.57703,765.88586L477.57703,765.88684L606.182,763.924L670.9173,824.02936L666.81775,1221.113C630.61926,1233.1953,594.4208,1245.2777,552.633,1246.9397C549.1558,1247.078,545.6399,1247.1442,542.08856,1247.1442C502.9606,1247.1442,459.5256,1239.1147,416.09064,1231.0852L416.93,810.35895 Z"/>
</g>
<g style="fill:rgb(0,0,0); fill-opacity:1.0; stroke-linejoin: miter">
<path d="M469.40863,737.0229C467.24237,737.8796,466.77252,741.8087,468.53833,743.5477C469.96875,744.95654,613.7577,743.86145,615.1663,742.43134C616.7403,740.8331,616.37726,736.9106,614.53015,735.9179C612.43604,734.8472,472.06897,735.91614,469.40863,737.0229 Z"/>
</g>
<g style="fill:rgb(0,0,0); fill-opacity:1.0; stroke-linejoin: miter">
<path d="M470.90118,746.6224C470.90942,747.70874,479.34412,747.81104,541.88727,747.3348C604.4231,746.8586,612.8588,746.6277,612.8505,745.54126C612.84235,744.455,604.404,744.353,541.86835,744.82904C479.3252,745.30536,470.89288,745.53613,470.90118,746.6224 Z"/>
</g>
<g style="fill:rgb(0,0,0); fill-opacity:1.0; stroke-linejoin: miter">
<path d="M468.09778,751.3152C466.859,753.16425,467.20868,755.33435,468.8028,756.4087C469.8949,757.1534,613.01526,756.2301,614.93243,755.4622C616.51385,754.8636,616.6499,750.85754,615.2197,749.44904C614.4609,748.7014,597.0089,748.5809,541.8132,749.0013L469.339,749.76294L468.09778,751.3152 Z"/>
</g>
<g style="fill:rgb(0,0,0); fill-opacity:1.0; stroke-linejoin: miter">
<path d="M471.59064,760.13885C471.4231,760.4736,470.77386,762.7308,470.20935,765.16144C469.08038,770.5148,464.943,775.9785,459.6245,779.43744C457.46613,780.8734,451.14813,784.34735,445.57092,787.1491C423.7785,798.1643,416.31952,805.9055,410.36267,823.98474L408.48743,829.76404L409.69537,1021.3205C411.04517,1231.4888,410.68176,1217.0425,415.93994,1227.5261C419.3299,1234.258,428.41998,1243.3794,435.29114,1246.9194C446.6117,1252.678,441.43164,1252.4636,545.8089,1251.6687C634.7348,1250.9907,640.0754,1250.8706,645.6621,1249.321C659.15985,1245.7124,669.2804,1237.0315,675.61224,1223.9614L679.47705,1215.9946L678.0027,1022.27496L676.52856,828.55566L674.56177,822.30597C671.65204,813.4851,668.3502,807.412,663.3011,802.0185C657.65955,795.8835,651.6142,791.917,638.3732,785.5143C620.4361,776.793,615.81274,772.65643,613.7429,763.8147L612.7057,759.31805L543.57025,760.05426C505.57294,760.13385,473.92633,760.1212,473.25458,759.8801C472.58618,759.6318,471.83746,759.7243,471.59064,760.13885 Z M595.531,774.2305C599.02216,782.8083,605.4221,790.1031,614.0671,795.4622C616.5849,797.029,624.1256,800.9841,630.75275,804.3595C648.9388,813.40436,653.4863,818.5409,656.10596,833.4769C656.7205,837.1442,657.41016,894.92017,658.2357,1025.3442L659.40643,1211.9753L657.5112,1215.582C654.6309,1221.1155,650.2396,1225.5745,645.0806,1228.1196L640.3402,1230.4878L569.7835,1231.4458C530.96027,1231.9875,488.3766,1232.3123,475.01306,1232.1675L450.79578,1231.9392L446.01984,1229.6365C440.82257,1227.1699,436.3604,1222.779,433.3963,1217.29L431.45337,1213.7124L429.77924,1027.0847C428.62018,896.6625,428.4303,838.8827,428.98535,835.2064C431.4591,820.06525,435.76294,815.028,454.64612,805.28046C461.71558,801.5547,469.61633,797.1489,472.19202,795.3767C478.9176,790.7265,484.7956,783.6782,487.90942,776.4699L490.61792,770.26416L542.06067,770.0894L593.49243,769.4806L595.531,774.2305 Z M496.32654,1234.844C496.3277,1235.011,495.66656,1235.6819,494.91785,1236.2744C493.58997,1237.3713,493.5061,1237.2849,494.58215,1235.9441C495.6582,1234.5957,496.3213,1234.1707,496.32654,1234.844 Z M483.07007,1248.3076C483.07135,1248.4741,482.40637,1249.146,481.66138,1249.738C480.33362,1250.835,480.24945,1250.7485,481.32202,1249.4075C482.3982,1248.0593,483.06494,1247.6414,483.07007,1248.3076 Z"/>
</g>
<g style="fill:rgb(255,255,255); fill-opacity:0.99607843; stroke-linejoin: miter">
<path d="M651.3336,1253.6206L651.3335,1253.6196L651.3336,1253.6206L651.3335,1253.6196L651.3336,1253.6206 Z"/>
</g>
<g style="fill:rgb(0,0,0); fill-opacity:1.0; stroke-linejoin: miter">
<path d="M432.97833,658.0699L656.03296,658.07086L656.03296,695.47614L432.97833,695.4771L432.97833,658.0699 Z"/>
</g>
<g style="fill:rgb(0,0,0); fill-opacity:1.0; stroke-linejoin: miter">
<path d="M448.35095,692.45917L640.66016,692.46014L640.66016,738.31195L448.35095,738.3129L448.35095,692.45917 Z"/>
</g>
<g style="fill:rgb(255,255,255); fill-opacity:1.0; stroke-linejoin: miter">
<path d="M407.38794,896.01514L678.86395,896.0161L678.86395,1150.4875L407.38794,1150.4885L407.38794,896.01514 Z"/>
</g>
<g style="fill:rgb(0,0,0); fill-opacity:0.99607843; stroke-linejoin: miter">
<path d="M421.78705,1010.87604L662.7402,1010.877L662.7402,1094.7227L421.78705,1094.7236L421.78705,1010.87604 Z"/>
</g>
<g>
<g style="fill:rgb(0,0,0); fill-opacity:1.0; stroke-linejoin: miter">
<path d="M634.7013,959.52094Q635.66003,959.52094,636.3665,960.22736Q637.07294,960.88336,637.07294,961.8926Q637.07294,962.24585,636.97205,962.59906Q636.8711,962.9018,636.7197,963.1541L636.66925,963.25507Q636.31604,963.75964,635.761,964.01196Q635.25635,964.2643,634.6508,964.2643L634.348,964.2643Q634.24713,964.2643,634.0957,964.2138Q633.79297,964.1633,633.49023,963.9615Q633.2379,963.8101,632.9856,963.6083Q632.7333,963.35596,632.5819,963.0532Q632.43054,962.7504,632.38007,962.3972Q632.3296,962.29626,632.3296,962.1954Q632.3296,962.0944,632.3296,961.9935Q632.2791,961.0347,632.9351,960.27783Q633.5911,959.52094,634.7013,959.52094 Z M591.8596,963.0532L591.8596,970.3701L602.55743,970.3701L602.55743,963.0532 Z M486.04233,959.7228Q488.31308,959.7228,489.92783,961.3375Q491.5426,962.9523,491.5426,965.223Q491.5426,967.4938,489.92783,969.1086Q488.31308,970.7233,486.04233,970.7233Q483.77155,970.7233,482.1568,969.1086Q480.5925,967.4938,480.5925,965.223Q480.5925,962.9523,482.20724,961.3375Q483.77155,959.7228,486.04233,959.7228 Z M573.0376,960.732Q576.0148,960.732,577.8314,962.7504Q579.59753,964.76886,579.59753,967.29193Q579.59753,968.50305,579.14343,969.7141Q578.6893,970.8747,577.68005,971.8839Q576.1662,973.39777,574.3496,973.6501Q572.93677,973.8115,571.45935,973.8115Q571.08984,973.8115,570.7164,973.80145L569.6567,973.80145L569.6567,960.732 Z M486.04233,949.02496Q479.33096,949.02496,474.58762,953.7683Q469.84424,958.51166,469.84424,965.223Q469.84424,971.9344,474.58762,976.67773Q479.33096,981.42114,486.04233,981.42114Q492.75366,981.42114,497.5475,976.67773Q502.29086,971.9344,502.29086,965.223Q502.29086,958.51166,497.49704,953.7683Q492.75366,949.02496,486.04233,949.02496 Z M545.7885,949.9333L545.7885,984.49927L556.48627,984.49927L556.48627,949.9333 Z M558.95886,949.9837L558.95886,984.49927L573.0376,984.49927Q580.15265,984.49927,585.2492,979.40265Q590.29535,974.3565,590.29535,967.2415Q590.29535,960.12646,585.1987,955.02985Q580.15265,949.9837,573.0376,949.9837 Z M603.86945,949.9837L603.86945,960.6815L608.76416,960.6815L608.76416,984.49927L619.462,984.49927L619.462,949.9837 Z M464.19257,948.72217Q456.5729,948.72217,451.1231,954.172Q445.72375,959.57135,445.72375,967.19104Q445.72375,974.81067,451.17355,980.2605Q456.5729,985.65985,464.19257,985.65985Q465.30273,985.65985,466.41287,985.5085Q467.47256,985.3571,468.53226,985.1553L466.0092,974.76025Q465.80734,974.81067,465.55502,974.86115Q465.35318,974.9116,465.15134,974.9116Q464.89905,974.96204,464.6972,974.96204L464.24304,974.96204Q464.17612,974.96313,464.1095,974.96313Q461.1133,974.96313,458.7932,972.74176Q456.42154,970.5215,456.42154,967.19104Q456.42154,963.9111,458.7932,961.69073Q461.1649,959.47046,464.24304,959.47046Q464.64673,959.47046,465.1009,959.52094Q465.55502,959.57135,466.0092,959.6723L468.53226,949.2773Q467.47256,949.02496,466.36243,948.8736Q465.30273,948.72217,464.19257,948.72217 Z M502.84592,949.9333L523.9892,986.61865L545.1325,949.9333L532.719,949.9333L523.9892,965.1726L515.2089,949.9333 Z M634.7013,948.8231Q629.25146,948.8231,625.4164,952.6582Q621.58136,956.4932,621.58136,961.8926Q621.58136,966.13135,624.05396,969.51227Q626.4761,972.8427,630.2607,974.2556L624.5586,983.94415L634.348,988.38477Q635.3068,986.71954,636.61884,984.54974Q637.8804,982.43036,639.1923,980.1596Q641.7154,975.7695,643.8348,972.1362Q645.95416,968.55347,645.95416,968.55347Q646.812,967.0901,647.3166,965.37445Q647.77075,963.7092,647.77075,961.8926Q647.77075,956.4932,643.93567,952.6582Q640.10065,948.8231,634.7013,948.8231 Z"/>
</g>
</g>
<g>
<g style="fill:rgb(255,255,255); fill-opacity:1.0; stroke-linejoin: miter">
<path d="M565.41534,1019.00214L565.41534,1024.9812L571.96686,1024.9812L571.96686,1019.00214 Z M622.3438,1034.1725Q623.83856,1034.1725,624.411,1034.9675Q624.9835,1035.7626,625.3651,1036.8121Q625.71497,1037.8617,625.71497,1042.9502L625.71497,1049.0248L617.9549,1049.0248L617.9549,1043.1729Q617.9549,1038.9747,618.7182,1036.5577Q619.48145,1034.1725,622.3438,1034.1725 Z M493.8572,1050.7739L493.8572,1068.9338Q493.38013,1070.1423,492.108,1071.1919Q490.83585,1072.2096,489.05484,1072.2096Q487.27386,1072.2096,486.54236,1070.4922Q485.81088,1068.8065,485.81088,1064.6403L485.81088,1060.2196Q485.81088,1057.1982,486.51056,1055.8625Q487.17844,1054.5586,488.5142,1053.5726Q489.84995,1052.5867,493.8572,1050.7739 Z M452.6079,1029.3701L459.38208,1077.0756L467.04675,1077.0756L473.88452,1029.3701L467.84183,1029.3701L464.7569,1056.2124L463.8346,1066.8983L463.23032,1066.8983L462.1172,1056.2441L458.6824,1029.3701 Z M565.41534,1029.3701L565.41534,1077.0756L571.93506,1077.0756L571.93506,1029.3701 Z M595.9468,1028.7659Q592.7664,1028.7659,590.60376,1030.4514Q588.47296,1032.1052,587.8369,1034.4269L587.8369,1029.3701L581.31714,1029.3701L581.31714,1077.0756L587.8369,1077.0756L587.8369,1039.7063Q587.8369,1036.9712,589.1408,1035.6036Q590.44476,1034.2361,592.4166,1034.2361Q594.3884,1034.2361,595.5016,1035.4446Q596.6147,1036.6531,596.6147,1039.0702L596.6147,1077.0756L603.1344,1077.0756L603.1344,1039.0383Q603.1344,1033.9498,601.1308,1031.3419Q599.15894,1028.7659,595.9468,1028.7659 Z M490.2316,1028.7976Q485.2384,1028.7976,482.5351,1031.6599Q479.8318,1034.5222,479.8318,1043.1729L479.8318,1044.5404L486.31973,1044.5404L486.31973,1042.8866Q486.31973,1037.9889,487.0512,1036.1124Q487.7827,1034.2361,489.94534,1034.2361Q492.0762,1034.2361,492.9667,1035.4764Q493.8572,1036.7167,493.8572,1042.8549L493.8572,1046.5441Q483.71185,1050.265,481.4538,1053.191Q479.22754,1056.0851,479.22754,1060.1877L479.22754,1064.8312Q479.29114,1077.489,487.40106,1077.489Q489.94534,1077.489,491.66275,1076.0579Q493.38013,1074.6584,493.889,1072.941L493.889,1077.0756L500.44055,1077.0756L500.44055,1044.604Q500.44055,1041.2646,500.21793,1038.9747Q499.70905,1033.6318,497.451,1031.2147Q495.22476,1028.7976,490.2316,1028.7976 Z M519.23645,1028.7976Q514.2433,1028.7976,511.66724,1031.7235Q510.49048,1033.0593,509.53638,1035.9535Q508.61407,1038.8158,508.61407,1045.0175L508.61407,1060.9829Q508.61407,1065.4672,509.12292,1068.7429Q510.5541,1077.648,518.88666,1077.648Q524.166,1077.648,526.7421,1074.6266Q529.31824,1071.6053,529.31824,1061.8416L529.31824,1058.7566L522.8939,1058.7566L522.8939,1063.3682Q522.8939,1069.2837,521.90796,1070.683Q520.92206,1072.0505,518.79126,1072.0505Q516.6604,1072.0505,515.8971,1070.0787Q515.16565,1068.1387,515.16565,1063.241L515.16565,1042.9502Q515.16565,1039.4836,515.6427,1037.5118Q516.37415,1034.395,519.4909,1034.395Q521.2719,1034.9039,522.54407,1036.9393Q522.8939,1038.3069,522.8939,1042.7594L522.8939,1046.9575L529.31824,1046.9575L529.31824,1043.6499Q529.28644,1040.7557,529.0956,1038.6567Q528.58673,1033.759,526.4241,1031.2783Q524.2297,1028.7976,519.23645,1028.7976 Z M547.22363,1028.7976Q542.23047,1028.7976,539.6544,1031.7235Q538.47766,1033.0593,537.52356,1035.9535Q536.60126,1038.8158,536.60126,1045.0175L536.60126,1060.9829Q536.60126,1065.4672,537.1101,1068.7429Q538.54126,1077.648,546.87384,1077.648Q552.1532,1077.648,554.7293,1074.6266Q557.3054,1071.6053,557.3054,1061.8416L557.3054,1058.7566L550.8811,1058.7566L550.8811,1063.3682Q550.8811,1069.2837,549.89514,1070.683Q548.90924,1072.0505,546.77844,1072.0505Q544.6476,1072.0505,543.8843,1070.0787Q543.15283,1068.1387,543.15283,1063.241L543.15283,1042.9502Q543.15283,1039.4836,543.6299,1037.5118Q544.3613,1034.395,547.4781,1034.395Q549.2591,1034.9039,550.53125,1036.9393Q550.8811,1038.3069,550.8811,1042.7594L550.8811,1046.9575L557.3054,1046.9575L557.3054,1043.6499Q557.2736,1040.7557,557.08276,1038.6567Q556.5739,1033.759,554.41125,1031.2783Q552.2168,1028.7976,547.22363,1028.7976 Z M622.1848,1028.7976Q617.2234,1028.7976,614.67914,1031.5963Q611.4352,1035.1266,611.4352,1044.1588L611.4352,1061.0146Q611.4352,1067.5027,612.2938,1070.4286Q613.1526,1073.3545,614.2975,1074.6902Q615.41064,1076.026,617.35065,1076.8529Q619.25885,1077.648,622.471,1077.648Q625.65137,1077.648,627.814,1076.2804Q629.9767,1074.9447,631.058,1071.8915Q632.10754,1068.8384,632.10754,1061.2373L632.10754,1059.2019L625.71497,1059.2019L625.71497,1063.0502Q625.71497,1064.4813,625.68317,1066.5803Q625.65137,1068.6476,624.9199,1070.4286Q624.2202,1072.2096,622.08936,1072.2096Q619.9585,1072.2096,618.97266,1070.683Q617.9867,1069.1564,617.9867,1062.9547L617.9867,1053.4454L632.23474,1053.4454L632.23474,1044.4451Q632.23474,1038.4977,631.21704,1034.9994Q629.37244,1028.7976,622.1848,1028.7976 Z"/>
</g>
</g>
<g style="fill:rgb(14,126,200); fill-opacity:0.99607843; stroke-linejoin: miter">
<path d="M463.68036,1109.8804L627.2516,1109.8813L627.2516,1128.4436L463.68036,1128.4446L463.68036,1109.8804 Z"/>
</g>
</g>
<g style="fill:rgb(0,0,0); fill-opacity:0.3254902; stroke-linejoin: miter">
<path d="M786.26544,1247.72L782.58044,1249.6969Q756.38165,1255.6713,629.2653,1259.2534Q501.26935,1262.8325,327.8174,1262.156Q162.2801,1261.2104,63.03138,1256.6227Q31.23099,1255.1396,10.643772,1253.3909L-6.6592216,1251.5929Q-20.918467,1249.7373,-21.078783,1247.72Q-16.750082,1241.529,97.15404,1237.4182Q211.05817,1233.3073,382.5933,1233.151Q554.1285,1233.3073,668.0326,1237.4182Q781.9367,1241.529,786.26544,1247.72"/>
</g>
</g>
</svg>