<svg id="Layer_1" data-name="Layer 1" xmlns="http://www.w3.org/2000/svg" viewBox="0 0 230 499.2"><defs><style>.cls-1{fill:#56b9f9;}.cls-1,.cls-10,.cls-12,.cls-13,.cls-14,.cls-15,.cls-16,.cls-18,.cls-2,.cls-20,.cls-21,.cls-22,.cls-23,.cls-24,.cls-25,.cls-26,.cls-3,.cls-4,.cls-5,.cls-6,.cls-7,.cls-8,.cls-9{fill-rule:evenodd;}.cls-2,.cls-9{fill:#f0c4a6;}.cls-17,.cls-2,.cls-9{stroke:#ef9a48;}.cls-11,.cls-13,.cls-14,.cls-16,.cls-17,.cls-18,.cls-19,.cls-2,.cls-22,.cls-24,.cls-26,.cls-3,.cls-4,.cls-5,.cls-6,.cls-7,.cls-9{stroke-miterlimit:4.44;}.cls-11,.cls-12,.cls-13,.cls-17,.cls-18,.cls-19,.cls-2,.cls-20,.cls-22,.cls-24,.cls-25,.cls-26,.cls-3,.cls-4,.cls-5,.cls-6,.cls-7,.cls-8{stroke-width:1.01px;}.cls-3{fill:#6d609e;stroke:#28166f;}.cls-4{fill:#dededd;}.cls-11,.cls-15,.cls-16,.cls-4,.cls-6,.cls-8{stroke:#c2c1c1;}.cls-5{fill:#0093dd;stroke:#007cc3;}.cls-10,.cls-15,.cls-16,.cls-6,.cls-7,.cls-8{fill:#fff;}.cls-7{stroke:#aaa9a9;}.cls-12,.cls-15,.cls-20,.cls-25,.cls-8{stroke-linejoin:bevel;}.cls-14,.cls-15,.cls-16,.cls-9{stroke-width:0.51px;}.cls-11,.cls-17,.cls-19{fill:none;}.cls-12{fill:#e77817;stroke:#da251d;}.cls-13,.cls-20,.cls-22,.cls-25{fill:#da251d;}.cls-13{stroke:#8e292a;}.cls-14,.cls-21{fill:#1f1a17;}.cls-14,.cls-18,.cls-19{stroke:#1f1a17;}.cls-18{fill:#3bb3c2;}.cls-20{stroke:#e77817;}.cls-22,.cls-25,.cls-26{stroke:#8b2829;}.cls-23{fill:#72706f;}.cls-24{fill:#84c225;stroke:#00923f;}.cls-26{fill:#8d2929;}</style></defs><path class="cls-1" d="M0,1H230V500.2H0Z" transform="translate(0 -1)"/><path class="cls-2" d="M84.25,446.94c3.35,1.69,5.66,4.85,8,8.71,2.48-4.34,8.28-8.34,12.77-10.33.07-3.7,1.1-8.45.51-12.16l-17-3.11a71.87,71.87,0,0,0-4.22,16.89Z" transform="translate(0 -1)"/><path class="cls-2" d="M143.41,443.46c3.26,1.86,6.43,5.5,9.25,8.93,2.74-4,6.09-8.12,10.58-10.1a63.12,63.12,0,0,0-.91-11.12l-13.84,2.05-5.08,10.24Z" transform="translate(0 -1)"/><path class="cls-3" d="M139.29,455.2c-.46,3.87-.34,5.19.62,6.37a22.91,22.91,0,0,0,6.62,6.82,2.49,2.49,0,0,0,2.83-.54A41.74,41.74,0,0,0,157.52,479c5.4,5.42,8.24,6.63,15.8,6.84,16.81.45,19-10.2,17.64-20.48L139.29,455.2Z" transform="translate(0 -1)"/><path class="cls-4" d="M80.6,310.42c-11-11.94-24.28-26.42-25.19-27.36-17.76-22-42-2.93-30.44,15.56,1,1.38,17.67,19.4,31.3,34L80.6,310.42Z" transform="translate(0 -1)"/><path class="cls-5" d="M56.66,310.6l-19.1-19.44c-1.3-1.58.59-4.15,2.47-2.33l20.09,19.63-3.46,2.14Z" transform="translate(0 -1)"/><path class="cls-6" d="M59.06,329.37c-10.82-11.49-21-22.44-27.85-29.42-11.11-13.44-.48-24.46,9.86-21.81,8.4,2.15,17.68,15.54,23.56,21.62L78.42,314,59.06,329.38Z" transform="translate(0 -1)"/><path class="cls-5" d="M68.16,315.79,42.07,289.44c-3.37-3.36-7.56.84-4,4.46l26.31,25.75,3.8-3.87Z" transform="translate(0 -1)"/><path class="cls-7" d="M90.79,301.9c-34.39,3.18-43.88,13.61-42.6,30.64.42,6.63,2.62,15.65.39,23.48q16-1.87,24.38-9.49c-4.12-8-3-16,.4-24a35.44,35.44,0,0,0-3,12c8-10.64,16.56-14.45,25.8-13.59L66.64,360.09c-5.09,19.2-14.78,33.72-25.14,47.57,39.16,34.44,100.72,30.64,138-.4q-1.41-3.72-2.89-7.45a490.77,490.77,0,0,0-37.22-73.66c22.55-15.32,50.06-9.59,62.77-25.31,1.39-2.34,2.45-4.47.54-5.86-8-6.42-15.69-13.24-23.2-20.38-2.23-1.08-3.64.57-6.11,3.07-10.84,15.68-25.36,13.55-37.78,19.64L90.79,301.9Z" transform="translate(0 -1)"/><path class="cls-8" d="M135.78,340.53c-1.21-.95-17.41-11.4-9.58-11.4,4.8,0,11.94,3.83,15.6.11,1.9-1.92,11.75-3.21,11.75.13a25.3,25.3,0,0,0,2.9,11.55c1.27,2.57.51,9.5-1.13,11.16,1.56-1.94,2.89-3.46,4.78-3,3.16.73,1.8,6.13.65,7.91-4.4,6.81-11,7.44-19.58,7.44h-7.83c-5.18,0-2.52-2.18-2.52-7.31,0-4,0-5.78-1.27-9.24-.88-2.44-5.9-8.45-3.28-11.42,2.15-2.44,8.21,3.41,9.51,4.1Z" transform="translate(0 -1)"/><path class="cls-2" d="M109.6,293.57h16.2l.21,6.07c-5.48,3.43-12,2.34-16.09.87l-.32-6.94Z" transform="translate(0 -1)"/><path class="cls-4" d="M70.67,348.55c7,6.44,20.72,21.84,35,30.52,2.69,1.94,5.06,1.88,8.22.84l9.54,8.93,14.71-11L128,369.26c1.45-3.3,1.54-6.29-.67-9.53C116.39,345.85,102.8,334,90.94,321.12,75,323,69.35,328,70.4,338.9A25.63,25.63,0,0,0,73,346.53a13,13,0,0,1-2.29,2Z" transform="translate(0 -1)"/><path class="cls-6" d="M86.14,321.83l6.14,6.51,28.77,29.72c8.65,12.2-7.21,21.85-14.7,17.74-9.42-6.51-17.59-15.19-35.62-34.36C68.37,330,74.19,323,86.14,321.83Z" transform="translate(0 -1)"/><path class="cls-5" d="M72.28,330.16c17,16.37,32.36,33.1,49.36,48.93,2.93,3.37,3.53,6.15,1.74,9.75,5.75,5.14,11.78,13.17,18.79,17.3,8.61,5.07,17.4-5.61,9.41-14.64-4.32-5.29-9-9.14-13.49-13.71-1.41,1.41-5.91,2.31-12.12-3L77,325.16a14.59,14.59,0,0,0-4.76,5Z" transform="translate(0 -1)"/><path class="cls-9" d="M59.93,353.88a18.8,18.8,0,0,0,3.28,9.39,12.12,12.12,0,0,0,5.72,4.09c3.34,1.32,16.41,2,16.41-3.8,0-2.49-3.77-4.39-5.69-4.84-.64-.15-6.82-2.14-2.79-2.14,2.69,0,10.38-1.75,10.34-5.54,0-5.37-12,3.93-16.53-2.49-1.87,1.06-2.4,1.77-4.46,2.65l-6.28,2.68Z" transform="translate(0 -1)"/><path class="cls-10" d="M147.19,404.35c-2.24,1.2-5.9-.44-7.4-2-2.79-2.84-3.17-5.27-3.17-8.95,0-1.88,2-1,2.12-.54,1.42,5.18,6.68,4.19,8.87,6.24,1.23,1.15,1.77,4-.42,5.21Z" transform="translate(0 -1)"/><path class="cls-8" d="M161.89,425.58c5.4,11,21.15,4.34,14.16-5.48-.22-.31-1.74-1.7-1.91-1.87,10,8.21,17.35-1.88,10.47-7,8.67,5.52,13.1-12.5.37-7.39,9.81-5.38-1.08-16.79-9.43-7l4,10.45c-20,16.75-44.94,24.52-73.94,24.83v2.4c.1,8.89,9.62,11.2,12.07,2.61,1.69,8.47,12.4,8,15.91,3.73a8.55,8.55,0,0,0,1.69-4.29c5.81,14,18.54,2.39,15.23-2,3.43,4.89,9.81,4.63,12,1.23,3.13-4.86-.26-8-.6-10.2Z" transform="translate(0 -1)"/><path class="cls-8" d="M105.59,434.48c-2.68,9.84-14.21,10.59-17.57-1.9-2.51,9.07-15.08,8-12.2-1.1-1.68,8-17.4,12.14-12.71-4.48-3.08,10.5-17.86,8.26-10.53-5.43-10.83,11.4-22.14,1-13.93-6.47-15.46,1.56-8.33-15.93.94-9.52-2.81-13,8-11.13,8.49-7.18-1.23,1.69-4.25,6.37-6.12,9.39,20,16.38,37.24,21.06,63.63,24.3v2.39Z" transform="translate(0 -1)"/><path class="cls-11" d="M105.59,434.48v-2.39" transform="translate(0 -1)"/><path class="cls-8" d="M100.53,294.5c5.91,9.14,28.7,12.67,29.05-1.88l4.77-2.65c3,2.63.87,7.32-4.15,11.56a15.2,15.2,0,0,0,5-5.87c2.46,10.78-2.39,19.43-19,20.08-10.11.16-17.74-4.1-23.6-11.49-1.25-1.56-1.92-2.49-1.45-4.62s2.24-3,4-3.37a16.36,16.36,0,0,0,5,5.58c-3.61-2.85-5.63-5.83-5.69-9.37l6,2Z" transform="translate(0 -1)"/><path class="cls-2" d="M77.32,285c-6.2-16.69-5.56-38.14,10.53-55.5l43.06-20.94c12.21,4.83,21.26,22.86,28.22,41.67C144.64,300.59,112,303.35,77.32,285Z" transform="translate(0 -1)"/><path class="cls-12" d="M58.72,285.9c5.27,2.2,10.85,3.56,18.6-.94-5.58-12.7-2.22-23.85,2.46-34.89-9.93,7.78-14.55,15.53-21.06,35.83Z" transform="translate(0 -1)"/><path class="cls-12" d="M29.76,274.6l.12,0-.12,0c7,6.93,14.38,13.79,27.42,15.14,8.76-22.75,12-33.68,32.14-46.91,5.32-3.5,9.75-7.7,12.13-17.25a19.12,19.12,0,0,1-4.08,13.18c14.68-1.78,24.52-8.51,24.88-22.17,1.42,6.21-1.18,12-5.84,17.55,5.76-1.18,12-4,15.69-12.91.74-1.76,1.87-5.28-.73-14.44,2.53,2,3.3,11.24,3,12.91,9.52,6.52,16.49,15.25,18.34,26.09,1.74,10.19-.15,23.07-7.15,34.43,14.85-7.3,25.45-19.64,29.83-39.35-8.68,3-14.5.54-19.91-2.7,14.4,4.62,22,4.22,21.24-9-8.23,5.08-14.23,5.87-23.45,0,13.38,5.59,24.68,3.7,25.22-15.38-29.11,10.49-27.09-14.65-64.73-7.87a14.51,14.51,0,0,1,4.17,7.07c-1.69-3-1.65-5.55-4.09-7-1.57.32-5.36,1-7.07,1.48,4.7,3.36,8.09,6.74,7.08,14,.22-6.56-1.68-11.28-7.61-13.83-1.89.52-5.78,1.58-7.85,2.24-1.16.34-4,1.35-5.22,1.76a38.73,38.73,0,0,1-2.93,8.85c-.15.33,2.06-6,2.21-8.58-1.17.45-6.64,2.91-7.79,3.42-2.83,11.66-6,16.27-11.88,22.22,4.54-5.56,9.3-11.14,11-21.75-2.4,1.2-6.23,2.68-8.27,3.86-4.33,12.72-6.93,16.06-12.9,21.69,4.24-5.18,9.9-11.39,11.58-20.56-19.85,13-33.5,30.78-49.91,32.9a27.76,27.76,0,0,0,2,9.26c2.63-.34,4.69-1.17,8.12-2.56a88.24,88.24,0,0,1-7.47,5.33,9.08,9.08,0,0,0,1.59,5.45,33.82,33.82,0,0,1,10.3-7.69c-3.86,3.48-7,6.65-9,11.16Z" transform="translate(0 -1)"/><path class="cls-6" d="M55.67,234.5c23-21.41,54.55-31,77.37-29.48-1.65-5.05-4.43-10.16-8.58-13.31l-3.28,5.55c6.78-10.75,8.5-19.58-.94-22.83-12.14-2-26.26-.32-38.8,4.55-14.84,5.77-27.47,16-32,29.85-1.09,8.45,3.43,12,10.77,8.87-6.43,5.37-6.84,11-4.53,16.8Z" transform="translate(0 -1)"/><path class="cls-13" d="M91.85,196.28c.38,1.09,1.43,1.33,2.55,1.15,1.46-.22,2.39-.78,4.26-1.18L99.6,201c.33,1.12,1,2.13,2.33,1.78,2-.54,3.9-.75,5.91-1.1,3.1-.55,2.7-2.17,1.9-5.05l-.51-2.5,2.91-.28c4-.35,3.49,0,2.75-4.17-.19-1.07-.51-2.11-.77-3.17-.43-2.53-1.32-3.2-3.64-2.87l-2.41.19-.5-4c-.54-3.52-1.1-3.38-3.46-3-1.93.3-3.75.72-5.76,1.21-3.67.88-3.48.57-2.43,4.14l.91,3.06c-1.78.62-3.53.92-5.49,1.45-1,.27-2.41.91-1.87,2.7.74,2.45,1.74,5,2.38,6.83Z" transform="translate(0 -1)"/><path class="cls-6" d="M95.17,174.75a76.36,76.36,0,0,1,12.09-1.24C107.66,162.75,92.31,162.14,95.17,174.75Z" transform="translate(0 -1)"/><path class="cls-6" d="M82,178.45a95,95,0,0,1,12.78-3.37C94.61,163.94,76.73,164.38,82,178.45Z" transform="translate(0 -1)"/><path class="cls-6" d="M70.09,184.61a78.3,78.3,0,0,1,12.06-5.89C76.37,164.68,62.11,175.35,70.09,184.61Z" transform="translate(0 -1)"/><path class="cls-6" d="M62.11,190.28c2.73-2.54,5.44-4,7.88-5.61-1.46-3.3-7.09-9-11.57-2.57-.65.93.16,3.49,1.45,4.14a4.88,4.88,0,0,1,1.29,1.64,9.24,9.24,0,0,0,.8,1.3c.32.33-.17,1.1.15,1.1Z" transform="translate(0 -1)"/><path class="cls-6" d="M49.69,214.28a12.72,12.72,0,0,1-4.27.54c-3,3.44,3.74,6.84,5.95,2.63a8,8,0,0,1-1.68-3.17Z" transform="translate(0 -1)"/><path class="cls-6" d="M107.67,173.42a62.43,62.43,0,0,1,10,.26c2.3-10.24-11.3-11.84-10-.26Z" transform="translate(0 -1)"/><path class="cls-6" d="M117.68,173.7c2.26.35,5.41,1.23,7.2,3.12C133.33,168.75,118.29,161.15,117.68,173.7Z" transform="translate(0 -1)"/><path class="cls-6" d="M124.9,176.79a6,6,0,0,1,4.25-2.57c3-.18,4.74,4.25,2.13,5.95a7,7,0,0,1-4.36.7,7.48,7.48,0,0,0-2-4.08Z" transform="translate(0 -1)"/><path class="cls-6" d="M126.31,187.16a12.9,12.9,0,0,0,.71-5.79C131.78,181.85,130.82,187.18,126.31,187.16Z" transform="translate(0 -1)"/><path class="cls-6" d="M55.75,197a77.7,77.7,0,0,1,6.36-6.71c-1.84-3.46-7-4.1-9.16-1.69C50.45,191.43,52.56,196.16,55.75,197Z" transform="translate(0 -1)"/><path class="cls-6" d="M51.35,204.11a46.94,46.94,0,0,1,4.17-6.88c-2.65-2.59-8.17-3.79-10-.48-2.07,3.82,2.36,6.67,5.79,7.36Z" transform="translate(0 -1)"/><path class="cls-6" d="M49.69,214.28a16.85,16.85,0,0,1,1.66-10.17c-5-2-11.73.37-12.26,5-.61,5.32,6.29,6.49,10.6,5.19Z" transform="translate(0 -1)"/><path class="cls-14" d="M107.4,262.25c0-4.71-3.37-8.52-7.52-8.52s-7.52,3.81-7.52,8.52,3.37,8.53,7.52,8.53,7.52-3.82,7.52-8.53" transform="translate(0 -1)"/><path class="cls-15" d="M96.31,258.2c4.86-2.38,8.38,2.07,8.12,7.15C107.69,259.57,101.76,252.78,96.31,258.2Z" transform="translate(0 -1)"/><path class="cls-16" d="M101.45,265.15a.57.57,0,0,0-.57-.59.58.58,0,0,0-.58.59h0a.58.58,0,0,0,.58.58.57.57,0,0,0,.57-.58" transform="translate(0 -1)"/><path class="cls-14" d="M145.49,251.47c0-4.71-3.37-8.53-7.52-8.53s-7.52,3.82-7.52,8.53S133.81,260,138,260s7.52-3.82,7.52-8.53" transform="translate(0 -1)"/><path class="cls-15" d="M134.4,247.42c4.86-2.38,8.38,2.06,8.12,7.15C145.78,248.78,139.85,242,134.4,247.42Z" transform="translate(0 -1)"/><path class="cls-16" d="M139.55,254.37a.58.58,0,1,0-1.16,0h0a.59.59,0,0,0,.58.58.58.58,0,0,0,.58-.58" transform="translate(0 -1)"/><path class="cls-17" d="M115.45,261.2c-3,3.35-1.17,8.5,2.31,10.17,7.87,3.77,15.37-7.38,11.47-9.92C125,258.7,119.11,256,119.11,249.8" transform="translate(0 -1)"/><path class="cls-18" d="M87.06,275,116,265.28C122.37,284.7,93,297.76,87.06,275Z" transform="translate(0 -1)"/><path class="cls-18" d="M126,262.66,155,252.91C161.34,272.33,131.93,285.39,126,262.66Z" transform="translate(0 -1)"/><path class="cls-19" d="M74.87,268.82,87.06,275" transform="translate(0 -1)"/><path class="cls-19" d="M116,265.21c2.74-2.38,8.26-3.12,10.07-2.59" transform="translate(0 -1)"/><path class="cls-19" d="M116.91,269.82a12.65,12.65,0,0,0,10.59-3.12" transform="translate(0 -1)"/><path class="cls-20" d="M92,250.77c1.46-3.23,5.5-3.4,8-4.07,2.83-.74,2.78-4.37-.09-4.48C96.53,242.11,90.77,246.56,92,250.77Z" transform="translate(0 -1)"/><path class="cls-20" d="M136.71,239.31c1.9,0,2.55-3.48-.16-4-2.43-.45-7.44.36-8.6,5.23-.07.32,3.32-1.35,8.76-1.25Z" transform="translate(0 -1)"/><path class="cls-14" d="M142.09,244.24a6.12,6.12,0,0,0,1.64-5.46c-.15-1.11,1.26-1.25,1.35-.21.43,2.34-.53,4.27-2.44,5.93l-.55-.26Z" transform="translate(0 -1)"/><path class="cls-14" d="M144.09,246.64a6.1,6.1,0,0,0,2.6-5.07c.05-1.12,1.46-1,1.36,0,0,2.39-1.29,4.11-3.47,5.38l-.49-.35Z" transform="translate(0 -1)"/><path class="cls-14" d="M144.46,249a5.47,5.47,0,0,0,4.5-2.6.64.64,0,1,1,1,.73c-1.17,1.84-3,2.52-5.34,2.39l-.2-.52Z" transform="translate(0 -1)"/><path class="cls-14" d="M93.85,258.22A6.08,6.08,0,0,1,91,253.31c-.11-1.11-1.51-.91-1.35.12.12,2.38,1.5,4,3.75,5.18l.47-.39Z" transform="translate(0 -1)"/><path class="cls-14" d="M92.48,261a6,6,0,0,1-3.71-4.29.7.7,0,1,0-1.32.37c.56,2.31,2.22,3.67,4.63,4.38l.4-.46Z" transform="translate(0 -1)"/><path class="cls-14" d="M92.66,263.4a5.41,5.41,0,0,1-5-1.43.64.64,0,1,0-.83,1c1.56,1.5,3.52,1.71,5.73,1l.08-.56Z" transform="translate(0 -1)"/><path class="cls-17" d="M119.37,285.05a4.53,4.53,0,0,0,8.31-.54" transform="translate(0 -1)"/><path class="cls-21" d="M125.27,279.2a2.18,2.18,0,1,0-4.36,0h0a2.18,2.18,0,1,0,4.36,0h0" transform="translate(0 -1)"/><path class="cls-2" d="M195,260l7.33-6.67c3.89-2.28,7.86-1.93,7.86,3.77,0,2.55-3.05,4.2-6.13,6.39-4.65,3.65-2.41,5.62,6.29,14.74-4.56,4.17-11.19,10.53-14.92,10.53l-11.13-8.95L195,260Z" transform="translate(0 -1)"/><path class="cls-2" d="M180.84,275.55c-.52-2.89-1-8.49,2.76-9.73,2.85-.95,3.36-2.28,4.06-5.26.59-2.55-.44-5.26,2.93-5.26,4.51,0,5.8,7.12,3.12,9.85-3.28,3.33-4.13,4.39-.85,7.72,1.55,1.58,4.22,3,2.74,6.1-1.71,3.52-4.23,7.37-7.34,4.21-1.47-1.49-7.33-5.26-7.42-7.63Z" transform="translate(0 -1)"/><path class="cls-2" d="M204.06,263.52a35.69,35.69,0,0,0-5.89,4.51c-2.08,2.12-2.95,3.55-1.63,5.46,1.15,1.64,6.47-1.43,9.32-3.47a20.81,20.81,0,0,1-3.28,2.08c-3.78,2.72-4.12,4.25-3.17,5.64,1.75,2.59,7.47-1.29,9.8-3-1.7,1.63-4.8,2.52-5.77,4.2-2.91,5.08,4.83,5.46,8.61,0,.8-1.15,1.29-2.78.14-4a6.51,6.51,0,0,0-1.88-1.1c1.92-1,2-6.76-2.91-5,2.67-6.09-3.21-5.64-3.34-5.29Z" transform="translate(0 -1)"/><path class="cls-22" d="M164.41,442.67c-5.26,2.52-8.13,5.65-11.73,11.19a36.07,36.07,0,0,0-9.88-10,8,8,0,0,1-2.87-.49c-2.59,2.57-1.32,7.59-.65,11.82,8.45,3,14.64,15.31,22.41,22.08,3.89,3.39,7.6,4.34,12.71,4.27,9-.11,15.72-4.83,16.56-16.17.54-7.28-3.71-13.18-18.78-16,1.41-5.23-1.85-7.65-7.77-6.74Z" transform="translate(0 -1)"/><path class="cls-2" d="M161.06,458.31c.06,7,3.95,10.91,8.92,11,2.75,0,9.9-2.15,11.42-5,1.95-3.65-2.59-8-9.92-10-.61-1.88-2.85-3.41-4.24-4.33s-4.27.37-6.7,2.22c-2,1.5-3.2,2.68-.6,4.54.49.36.74,1.05,1.12,1.51Z" transform="translate(0 -1)"/><path class="cls-23" d="M73.07,333.21l6.85-7,1,1-6.86,7Z" transform="translate(0 -1)"/><path class="cls-23" d="M75.48,335.66l6.86-7,1,1-6.85,7Z" transform="translate(0 -1)"/><path class="cls-23" d="M78.06,338.28l6.85-7,1,1-6.85,7Z" transform="translate(0 -1)"/><path class="cls-23" d="M74.6,326.59l9.75,10-1,1-9.79-9.93,1-1Z" transform="translate(0 -1)"/><path class="cls-23" d="M76.76,344l13.71-14,1,1L77.72,345Z" transform="translate(0 -1)"/><path class="cls-23" d="M82.7,342.91l6.85-7,1,1-6.85,7Z" transform="translate(0 -1)"/><path class="cls-23" d="M85.2,345.45l6.85-7,1,1-6.86,7Z" transform="translate(0 -1)"/><path class="cls-23" d="M87.61,347.89l6.86-7,1,1-6.85,7Z" transform="translate(0 -1)"/><path class="cls-23" d="M90.19,350.51l6.86-7,1,1-6.85,7Z" transform="translate(0 -1)"/><path class="cls-23" d="M81.83,335.89l1-1L96.48,348.8l-1,1Z" transform="translate(0 -1)"/><path class="cls-23" d="M89.13,356.56l13.71-14,1,1-13.71,14Z" transform="translate(0 -1)"/><path class="cls-23" d="M95.08,355.46l6.85-7,1,1-6.86,7Z" transform="translate(0 -1)"/><path class="cls-23" d="M97.57,358l6.86-7,1,1-6.86,7Z" transform="translate(0 -1)"/><path class="cls-23" d="M100,360.44l6.86-7,1,1-6.85,7Z" transform="translate(0 -1)"/><path class="cls-23" d="M102.57,363.05l6.85-7,1,1-6.85,7Z" transform="translate(0 -1)"/><path class="cls-23" d="M94.21,348.44l1-1,13.7,13.88-1,1Z" transform="translate(0 -1)"/><path class="cls-23" d="M101.65,369.24l13.71-14,1,1-13.71,14Z" transform="translate(0 -1)"/><path class="cls-23" d="M107.59,368.14l6.85-7,1,1-6.85,7Z" transform="translate(0 -1)"/><path class="cls-23" d="M110.08,370.68l6.86-7,1,1-6.86,7Z" transform="translate(0 -1)"/><path class="cls-23" d="M112.5,373.12l6.85-7,1,1-6.85,7Z" transform="translate(0 -1)"/><path class="cls-23" d="M115.08,375.74l6.86-7,1,1-6.86,7Z" transform="translate(0 -1)"/><path class="cls-23" d="M106.72,361.12l1-1L121.37,374l-1,1Z" transform="translate(0 -1)"/><path class="cls-23" d="M35.27,293.62l6.86-7,1,1-6.85,7Z" transform="translate(0 -1)"/><path class="cls-23" d="M37.69,296.06l6.85-7,1,1-6.86,7Z" transform="translate(0 -1)"/><path class="cls-23" d="M40.27,298.68l6.85-7,1,1-6.86,7Z" transform="translate(0 -1)"/><path class="cls-23" d="M36.8,287l9.75,10-.95,1L35.8,288l1-1Z" transform="translate(0 -1)"/><path class="cls-23" d="M39,304.42l13.71-14,1,1-13.71,14Z" transform="translate(0 -1)"/><path class="cls-23" d="M44.91,303.32l6.85-7,1,1-6.86,7Z" transform="translate(0 -1)"/><path class="cls-23" d="M47.4,305.85l6.86-7,1,1-6.85,7Z" transform="translate(0 -1)"/><path class="cls-23" d="M49.82,308.3l6.85-7,1,1-6.85,7Z" transform="translate(0 -1)"/><path class="cls-23" d="M52.4,310.92l6.85-7,1,1-6.86,7Z" transform="translate(0 -1)"/><path class="cls-23" d="M44,296.3l1-1L58.68,309.2l-1,1Z" transform="translate(0 -1)"/><path class="cls-10" d="M110.57,274c-1.3,3.3-5.33,3.67-7.81,4.45-2.79.88-2.57,4.51.3,4.47,3.39,0,8.93-4.77,7.51-8.92Z" transform="translate(0 -1)"/><path class="cls-10" d="M149.15,262.49c-1.3,3.3-5.33,3.67-7.81,4.45-2.79.88-2.57,4.51.3,4.47,3.39,0,8.93-4.77,7.51-8.92Z" transform="translate(0 -1)"/><path class="cls-24" d="M131.83,323c7.21-.92,14,3.06,21.73,3.32C153.63,321.3,141.61,307,131.83,323Z" transform="translate(0 -1)"/><path class="cls-25" d="M161.9,302.28c-.32-2.51-1.3-6,1.29-7.3,1.81-.89,3.1-.85,4.58.27a4.16,4.16,0,0,0,2.59.57c1.08-.14,2.18-.4,2.58-.4a1.84,1.84,0,0,1,1.87,1.24c.6,1.58-.31,3.48-1.49,5-.29.38-2.15,2.56-3.15,3.83,1.77-.28,6-.26,8.13.83,3.86,2-2,4.9-1.39,6.31,1,2.07,1.07,6.54-2.26,4.9-1.5-.76-5.73-4-3.75-2.07,4.27,4.1,4.74,5.12,1.18,6.6a5.31,5.31,0,0,0-2.25,2.1c-4,6.38-5.17-3.56-5.68-5.1,0,2.94-.32,9.91-3.86,8.17-.85-.44-2.68-3.05-3-3.05-2.36,0-6.43.05-4.29-4.14.74-1.44,3-3.64,3.06-4.31,0-.45-.1,0-2.6,2.25-1.81,1.65-3.15,2.72-4.42.1-1.52-3.15.43-2.18-2.89-3.81s-.43-7.19,3.1-7.19c2.79,0,7.6,1.64,3.3-.52-4-2-3.7-5.05-1.44-5.84a7.4,7.4,0,0,0,3.74-2.74,3.36,3.36,0,0,1,5.67,1.09l1.38,3.22Z" transform="translate(0 -1)"/><path class="cls-26" d="M166.87,310.63a3.63,3.63,0,1,0-3.63,3.79,3.7,3.7,0,0,0,3.63-3.79" transform="translate(0 -1)"/><path class="cls-24" d="M168.11,341.5a13.76,13.76,0,0,0-2.92-3.21c-2.2-1.84-4.3-2.37-6.68-3.69-1.9-1-3.48-2.82-4.06-7.36,15.69-2.18,15.74,5.08,13.66,14.26Z" transform="translate(0 -1)"/><path class="cls-3" d="M105.79,458.08c.45,3.87.34,5.19-.62,6.37a23,23,0,0,1-6.62,6.82,2.51,2.51,0,0,1-2.83-.54,42,42,0,0,1-8.16,11.17c-5.41,5.41-8.25,6.63-15.8,6.84-16.82.45-19-10.2-17.65-20.49l51.68-10.17Z" transform="translate(0 -1)"/><path class="cls-22" d="M80.66,445.55c5.26,2.52,8.13,5.65,11.73,11.19,2.11-3.83,7.26-8.49,12.76-10.49,2.58,2.57,1.31,7.59.64,11.82-8.45,3-14.64,15.31-22.41,22.08-3.89,3.39-7.6,4.34-12.71,4.27-9-.11-15.72-4.83-16.56-16.17-.54-7.28,3.71-13.18,18.78-16-1.41-5.23,1.85-7.65,7.77-6.74Z" transform="translate(0 -1)"/><path class="cls-2" d="M84,461.18c-.06,7-4,10.91-8.93,11-2.74,0-9.89-2.15-11.41-5-2-3.65,2.59-8,9.92-10,.6-1.88,2.85-3.41,4.23-4.33s4.28.37,6.71,2.22c2,1.5,3.2,2.68.6,4.54-.5.36-.75,1.05-1.12,1.51Z" transform="translate(0 -1)"/></svg>