<?xml version="1.0" encoding="UTF-8"?>
<svg viewBox="0 0 395.86035 358.46417" xmlns="http://www.w3.org/2000/svg">
 <g transform="translate(-62.629 -279.74)">
  <path d="m64.286 326.65s135.71-11.429 151.43 24.286c0 0 9.3045 9.4104 22.857 44.286s45.714 168.57 45.714 168.57l-0.43284 1.1728s-28.924-106.77-41.416-145.46-18.419-55.895-38.386-71.721-48.067-14.965-70.711-18.183-69.054-2.9501-69.054-2.9501z"/>
  <path d="m208.57 576.65-18.571-64.286-18.571-74.286 15.714 180-0.76972-0.0799s-7.9979-20.673-9.5964-50.508c-1.5441-28.818-10.856-88.978-12.122-127.28l6.0609-15.657s10.986 29.26 17.678 54.548 20.178 97.547 20.178 97.547v2e-5z"/>
  <path d="m291.89 342.9 8.2143 17.5 120-50 5.7143 12.857 2.1428-1.0714-18.75-40.357-1.9643 1.4286 4.6428 11.071-120 48.571z" fill="#000" stroke="#600"/>
  <path d="m295.3 350.4-58.772 23.571 6.0761-0.68192 53.438-21.491-0.74152-1.3989z" fill="none" stroke="#600"/>
  <path d="m452.43 280.24-0.61592 5.9571-34.228 13.373 0.85289 2.1306 34.471-13.011 5.083 2.5915-5.563-11.042z" fill="#fff" stroke="#600"/>
  <path d="m70.711 327.07s88.328 0.66064 114.15 13.132 40.406 40.406 40.406 40.406l56.569 184.86-76.772 11.112-34.345-158.59s-3.3358 3.5428-8.0812 39.396 26.264 167.69 26.264 167.69l-126.27 13.132 8.0812-311.13z" fill="#000"/>
 </g>
</svg>
