<svg id="Layer_1" data-name="Layer 1" xmlns="http://www.w3.org/2000/svg" xmlns:xlink="http://www.w3.org/1999/xlink" viewBox="0 0 193.21 334.71"><defs><style>.cls-1,.cls-3{fill:none;}.cls-10,.cls-2,.cls-9{fill:#aad4ff;}.cls-10,.cls-2,.cls-3,.cls-6,.cls-8,.cls-9{stroke:#000;}.cls-2,.cls-3{stroke-width:5px;isolation:isolate;opacity:0.82;}.cls-4{fill:#56b9f9;}.cls-5{fill:#007fff;}.cls-6,.cls-8{fill:#ffd4aa;}.cls-7{clip-path:url(#clip-path);}.cls-9{stroke-width:2.91px;fill-rule:evenodd;}.cls-10{stroke-miterlimit:10;stroke-width:0.67px;}</style><clipPath id="clip-path" transform="translate(-194.89 -146.29)"><rect class="cls-1" x="196.06" y="317.31" width="225.6" height="169.2"/></clipPath><symbol id="a" data-name="a" viewBox="0 0 208 260"><ellipse class="cls-2" cx="138.5" cy="183" rx="36" ry="35.5"/><line class="cls-3" x1="144.5" y1="204.5" x2="155.5" y2="196.5"/><ellipse class="cls-2" cx="125" cy="59.5" rx="54.5" ry="57"/><ellipse class="cls-2" cx="76.5" cy="142.5" rx="31" ry="27"/><ellipse class="cls-2" cx="159.5" cy="113.5" rx="29" ry="28"/><line class="cls-3" x1="85.5" y1="158.5" x2="93.5" y2="151.5"/><line class="cls-3" x1="154.5" y1="126.5" x2="165.5" y2="120.5"/><circle class="cls-2" cx="79.5" cy="227.5" r="30"/><ellipse class="cls-2" cx="51.5" cy="59" rx="49" ry="49.5"/><ellipse class="cls-2" cx="191.5" cy="211.5" rx="14" ry="15"/><ellipse class="cls-2" cx="58.5" cy="181.5" rx="16" ry="14"/><ellipse class="cls-2" cx="177.5" cy="148.5" rx="24" ry="23"/><line class="cls-3" x1="84.5" y1="246.5" x2="94.5" y2="239.5"/><line class="cls-3" x1="190.5" y1="220.5" x2="199.5" y2="213.5"/><line class="cls-3" x1="184.5" y1="159.5" x2="193.5" y2="152.5"/><line class="cls-3" x1="61.5" y1="188.5" x2="65.5" y2="183.5"/><line class="cls-3" x1="62.5" y1="98.5" x2="74.5" y2="91.5"/><line class="cls-3" x1="168.5" y1="80.5" x2="170.5" y2="71.5"/></symbol></defs><rect class="cls-4" width="193.21" height="334.71"/><rect class="cls-5" x="67.04" y="168.09" width="9" height="62"/><path class="cls-6" d="M361,356.67c-.07-.59-21.23,6.43-38,11.34-15.56-11.89-45.47-6.42-45.47-6.42l5.8,5.73c.67.66,8.69-.43,15.33,4l-7.1,6c-4.92,4.14-14.76,7.61-24,10.43-3,.93-6,1.79-8.73,2.57l5.15,7.91-6.36,1.73,3.93,6,6.33-1.12,4.17,6,4-.92,3.09,5.09s21.85-4,38.32-6.64,23.53-19,23.53-19l31.79-2.93L361,356.67Zm-97,41.5c42.72-11.74,31.49-9.72-.62-1l.62,1Zm4.39,7.34c41.92-9.51,30.95-8.21-.49-.7l.49.7Zm8.21,5.19c32.77-6,30.33-7.24-.49-.81l.49.81ZM300,373.58s14.82,18.49,31.09,8.87C313.38,388.43,300,373.58,300,373.58Zm-6,8.11c-.18,10,4.79,19,11.64,26C299.55,402.3,292.3,391.78,294,381.69Zm32.78,3.2a4.34,4.34,0,0,1-1.84.33s-12.22,10.33-14.4,18.8a50.22,50.22,0,0,1,16.24-19.13Z" transform="translate(-194.89 -146.29)"/><path class="cls-6" d="M300,373.57s14.82,18.5,31.09,8.88C313.38,388.42,300,373.57,300,373.57Zm-6,8.11c-.18,10,4.79,19,11.65,26C299.55,402.3,292.31,391.78,294,381.68Zm32.78,3.21a4.53,4.53,0,0,1-1.84.33s-12.22,10.32-14.4,18.8a50.22,50.22,0,0,1,16.24-19.13Z" transform="translate(-194.89 -146.29)"/><g class="cls-7"><use width="208" height="260" transform="matrix(0.35, 0, 0, -0.35, 31.66, 284.36)" xlink:href="#a"/></g><path class="cls-8" d="M351.17,437.23c.42-.42-19.86-11.5-33.91-21.92.09-19.58-22.33-40.13-22.33-40.13l-1.07,8.09c-.13.93,5.59,6.67,6.09,14.62l-9.05-2.06c-6.26-1.42-15-7.17-22.78-12.81-2.59-1.87-5.07-3.72-7.33-5.41l-3.19,8.88-5.23-4L250,389.24l4.71,4.37-2.27,6.94,3.18,2.67-2.2,5.54s16.4,15,28.43,26.53,29.36,7.29,29.36,7.29l23.44,22,16.57-27.37ZM257.6,386.49s18.5,14.19,22.95,17.17.26-.67.26-.67L258,385.41l-.39,1.08Zm-3.2,7.93s17.16,14.44,21.6,17.42.23-.5.23-.5l-21.57-17.73-.26.81Zm.81,9.68S268.6,416.37,273,419.35s.27-.67.27-.67l-17.74-15.47-.36.89Z" transform="translate(-194.89 -146.29)"/><path class="cls-9" d="M213.92,292.1l-.18,14.24,14.58,1.48V291.14l-14.4,1Z" transform="translate(-194.89 -146.29)"/><path class="cls-10" d="M244,268.8h0c1.47,0,2.66,0,2.66,0V277h-5.31v-8.18S242.57,268.8,244,268.8Z" transform="translate(-194.89 -146.29)"/><path class="cls-9" d="M228.33,291.08c.89.06,1.29,1.05,2.13,1.36a7,7,0,0,0,2.49.08,13.53,13.53,0,0,0,1.94-1.49,5.08,5.08,0,0,0,1.64-2.87l.18-4.59c0-.23-1-1-1.11-1.15s.25-2.3-.11-2.26c-.41-.16-.61,0-1.21-.27-.14-.44-.22-2.33.36-2.22a5.68,5.68,0,0,0,2.68-.2c.67,0,3-2.13,3.63-2.13l5.88,0c.37,0,1.09,1,1.27,1.18.87,1.05,2,1.29,3.6,1.81.41.05,1.81-.2,1.93.09a4.8,4.8,0,0,1,.11,2.21c-.1.48-1,0-1.09.61a16.73,16.73,0,0,1-.15,2c-.84.86-1.85,1.4-1.5,1.75l0,3.92a7.37,7.37,0,0,0,.7,2.47,3.61,3.61,0,0,0,3,2.11c.1,0,8.61,1.12,13.41,5.72.4.39,1.3,1.15,2.31,4.23s1.64,12.7,1.31,12.84c-2.78,1.14-6.55,2.32-11,.87-.57-.18.05-3.84-.31-5.59s0-5.27-3.86-6c-1.62-.28-6.84.63-10.5,1.4a16.38,16.38,0,0,1-5.35.35c-.77-.15-5.49-1.18-6.36-1.4a7.64,7.64,0,0,0-3.8.39c-1.44.45-2.21,1.55-2.17,1.17s0-16.18,0-16.47Z" transform="translate(-194.89 -146.29)"/><path class="cls-9" d="M244,261.22c-.89,0-2.31,1.27-4,2.5-2.25,1.4-4.93.41-7.22-.34s-5.63-.14-5.93,2.57c.06,1.59.64,4.05,2.56,4.15,3.23-.44,6.56-1.88,9.82-.82a3.76,3.76,0,0,1,1.64,1.44h6.38a3.91,3.91,0,0,1,1.65-1.44c3.25-1.06,6.58.38,9.81.82,1.93-.1,2.51-2.56,2.57-4.15-.3-2.71-3.76-3.43-5.94-2.57s-5,1.74-7.22.34c-1.74-1.25-3.17-2.55-4.06-2.49Z" transform="translate(-194.89 -146.29)"/><path class="cls-9" d="M234.52,277.76a79.33,79.33,0,0,0,19.1.58" transform="translate(-194.89 -146.29)"/><path class="cls-9" d="M234.28,279.94a88.42,88.42,0,0,0,19.34.77" transform="translate(-194.89 -146.29)"/></svg>